<svg width="51" height="60" viewBox="0 0 51 60" fill="none" xmlns="http://www.w3.org/2000/svg">
<path d="M28.5714 4.0792V6.28595C36.7188 7.99043 42.8572 15.4118 42.8572 24.3077V26.4685C42.8572 31.8819 44.788 37.0884 48.2701 41.1341L49.096 42.0881C50.0335 43.18 50.2679 44.7201 49.6875 46.0419C49.1072 47.3636 47.8348 48.2141 46.4286 48.2141H3.5714C2.16515 48.2141 0.889595 47.3636 0.313478 46.0419C-0.262639 44.7201 -0.0322031 43.18 0.902206 42.0881L1.72989 41.1341C5.2165 37.0884 7.14284 31.8819 7.14284 26.4685V24.3077C7.14284 15.4118 13.1808 7.99043 21.4286 6.28595V4.0792C21.4286 2.0483 23.0245 0.401291 25 0.401291C26.9754 0.401291 28.5714 2.0483 28.5714 4.0792ZM25 59.2478C23.1027 59.2478 21.2835 58.4778 19.9442 57.0986C18.6049 55.7194 17.8571 53.7425 17.8571 51.892H32.1429C32.1429 53.7425 31.3951 55.7194 30.0558 57.0986C28.7165 58.4778 26.7969 59.2478 25 59.2478Z" fill="#0E2560"/>
</svg>
