<svg width="19" height="19" viewBox="0 0 19 19" fill="none" xmlns="http://www.w3.org/2000/svg">
<path d="M5.73393 0.656465C5.96295 0.254125 6.43371 0 6.94688 0H12.0531C12.5663 0 13.0371 0.254125 13.2661 0.656465L13.5714 1.1875H17.6429C18.3935 1.1875 19 1.71928 19 2.375C19 3.03072 18.3935 3.5625 17.6429 3.5625H1.35714C0.607746 3.5625 0 3.03072 0 2.375C0 1.71928 0.607746 1.1875 1.35714 1.1875H5.42857L5.73393 0.656465ZM1.31897 4.75H17.6429V16.625C17.6429 17.935 16.4257 19 14.9286 19H4.03326C2.57221 19 1.31897 17.935 1.31897 16.625V4.75ZM4.71183 7.71875V16.0312C4.71183 16.3578 5.05536 16.625 5.3904 16.625C5.80179 16.625 6.06897 16.3578 6.06897 16.0312V7.71875C6.06897 7.39219 5.80179 7.125 5.3904 7.125C5.05536 7.125 4.71183 7.39219 4.71183 7.71875ZM8.78326 7.71875V16.0312C8.78326 16.3578 9.12679 16.625 9.46183 16.625C9.87321 16.625 10.1786 16.3578 10.1786 16.0312V7.71875C10.1786 7.39219 9.87321 7.125 9.46183 7.125C9.12679 7.125 8.78326 7.39219 8.78326 7.71875ZM12.8929 7.71875V16.0312C12.8929 16.3578 13.1982 16.625 13.5714 16.625C13.9446 16.625 14.25 16.3578 14.25 16.0312V7.71875C14.25 7.39219 13.9446 7.125 13.5714 7.125C13.1982 7.125 12.8929 7.39219 12.8929 7.71875Z" fill="#DC0B0B"/>
</svg>