<svg width="480" height="645" viewBox="0 0 480 645" fill="none" xmlns="http://www.w3.org/2000/svg">
<path fill-rule="evenodd" clip-rule="evenodd" d="M140.552 328.293L136.692 331.986L140.552 328.293Z" fill="#ABBAC2"/>
<path fill-rule="evenodd" clip-rule="evenodd" d="M127.96 338.706L123.256 341.559L118.556 344.077V344.246L123.426 341.728L128.126 338.706H127.96Z" fill="#ABBAC2"/>
<path fill-rule="evenodd" clip-rule="evenodd" d="M108.313 347.94L102.938 349.451L100.421 349.956L97.7334 350.461V350.962L100.421 350.461L103.105 349.956L105.792 349.116L108.479 348.445L108.313 347.94Z" fill="#ABBAC2"/>
<path fill-rule="evenodd" clip-rule="evenodd" d="M75.901 350.461L75.7347 351.132L78.5881 351.467L81.2752 351.803H83.9623L86.8156 351.972V351.298H83.9623L81.2752 351.132L78.5881 350.796L75.901 350.461Z" fill="#ABBAC2"/>
<path fill-rule="evenodd" clip-rule="evenodd" d="M55.4168 343.575L54.912 344.246L57.4298 345.422L59.9507 346.598L62.4685 347.604L65.1556 348.611L65.3219 347.94L62.8041 346.933L60.2862 345.927L57.7653 344.751L55.4168 343.575Z" fill="#ABBAC2"/>
<path fill-rule="evenodd" clip-rule="evenodd" d="M38.4538 329.973L37.7828 330.475L39.7989 332.491L41.6457 334.507L43.6618 336.354L45.8442 338.201L46.3459 337.53L44.1636 335.683L42.1505 333.836L40.3007 331.986L38.4538 329.973Z" fill="#ABBAC2"/>
<path fill-rule="evenodd" clip-rule="evenodd" d="M26.5326 311.668L25.6923 312.173L28.3794 317.043L31.2327 321.746L31.9068 321.241L29.0504 316.538L26.5326 311.668Z" fill="#ABBAC2"/>
<path fill-rule="evenodd" clip-rule="evenodd" d="M19.8163 291.015L18.976 291.181L19.4807 293.868L20.1517 296.555L20.8228 299.242L21.6631 301.93L22.5034 301.594L21.6631 299.073L20.992 296.389L20.318 293.702L19.8163 291.015Z" fill="#ABBAC2"/>
<path fill-rule="evenodd" clip-rule="evenodd" d="M25.1874 271.199L23.8454 271.87L22.6696 272.71L21.6631 273.716L20.8228 274.892L20.1517 276.068L19.647 277.413L19.3114 278.755L18.976 280.1L19.8163 280.266L20.1517 278.924L20.4872 277.749L20.992 276.404L21.6631 275.228L22.3341 274.221L23.3406 273.381L24.3502 272.544L25.526 271.87L25.1874 271.199Z" fill="#ABBAC2"/>
<path fill-rule="evenodd" clip-rule="evenodd" d="M36.1052 269.857L35.7666 270.528L36.9424 271.199L37.2779 271.534L37.6165 272.039L37.952 272.544L38.1182 273.215L38.2875 274.39L38.1182 275.732L37.7827 277.078L37.2779 278.25L36.6069 279.426L37.2779 279.762L37.952 278.589L38.623 277.244L38.9585 275.902V274.39V273.045L38.623 272.374L38.2875 271.703L37.952 271.032L37.4472 270.528L36.7762 270.023L36.1052 269.857Z" fill="#ABBAC2"/>
<path fill-rule="evenodd" clip-rule="evenodd" d="M16.6243 281.611L16.2888 282.282L18.976 283.123L21.6631 283.624L24.5164 283.96L27.2035 284.129V283.458L24.5164 283.289L21.8293 282.954L19.1422 282.449L16.6243 281.611Z" fill="#ABBAC2"/>
<path fill-rule="evenodd" clip-rule="evenodd" d="M2.18233 266.498L1.8468 266.665L2.68711 269.352L4.02913 271.703L5.37422 274.221L7.05176 276.237L7.55654 275.902L5.87593 273.886L4.36462 271.534L3.19189 269.182L2.18233 266.498Z" fill="#ABBAC2"/>
<path fill-rule="evenodd" clip-rule="evenodd" d="M0.504781 244.835L0.335486 247.689L0 250.376V253.063V255.919H0.335486V253.063V250.376L0.504781 247.689L0.840305 245.001L0.504781 244.835Z" fill="#ABBAC2"/>
<path fill-rule="evenodd" clip-rule="evenodd" d="M4.53384 229.051L2.85327 234.256H3.02257L4.53384 229.051Z" fill="#ABBAC2"/>
<path fill-rule="evenodd" clip-rule="evenodd" d="M374.303 6.55001L379.342 4.53391L374.303 6.55001Z" fill="#ABBAC2"/>
<path fill-rule="evenodd" clip-rule="evenodd" d="M400.836 0L395.295 0.671009L389.921 1.51131V1.6806L395.295 0.840301L400.836 0.335504V0Z" fill="#ABBAC2"/>
<path fill-rule="evenodd" clip-rule="evenodd" d="M411.75 0.169296V0.671014L417.125 1.34202L419.812 1.84682L422.499 2.35162L422.668 1.84682L419.981 1.34202L417.125 0.840306L411.75 0.169296Z" fill="#ABBAC2"/>
<path fill-rule="evenodd" clip-rule="evenodd" d="M433.078 5.20493L432.912 5.70972L435.43 6.88553L437.781 8.06133L440.299 9.23714L442.651 10.5792L442.986 10.0744L440.468 8.73234L438.117 7.38724L435.596 6.21452L433.078 5.20493Z" fill="#ABBAC2"/>
<path fill-rule="evenodd" clip-rule="evenodd" d="M451.885 16.4551L451.383 17.1292L453.396 18.976L455.412 20.8228L457.259 22.8389L458.94 24.852L459.611 24.3502L457.764 22.3341L455.917 20.318L453.901 18.305L451.885 16.4551Z" fill="#ABBAC2"/>
<path fill-rule="evenodd" clip-rule="evenodd" d="M465.656 33.5843L464.985 33.9198L466.327 36.2714L467.336 38.7893L468.343 41.3102L469.349 43.828L470.19 43.6618L469.183 40.9747L468.174 38.4538L466.998 35.9359L465.656 33.5843Z" fill="#ABBAC2"/>
<path fill-rule="evenodd" clip-rule="evenodd" d="M472.877 54.2409L472.036 54.4071L472.877 59.7814L473.382 65.3218L474.388 65.1556L473.717 59.7814L472.877 54.2409Z" fill="#ABBAC2"/>
<path fill-rule="evenodd" clip-rule="evenodd" d="M473.382 76.2365L473.043 78.9236L472.708 81.6107L472.372 84.2978L471.701 86.9849L472.541 87.1542L473.212 84.4671L473.548 81.78L474.053 78.9236L474.219 76.2365H473.382Z" fill="#ABBAC2"/>
<path fill-rule="evenodd" clip-rule="evenodd" d="M467.672 96.8931L466.998 98.0689L466.161 99.0754L465.151 100.082L464.145 100.922L462.969 101.593L461.793 102.098L460.617 102.267L459.275 102.603V103.274L460.617 103.105L462.129 102.769L463.474 102.267L464.649 101.427L465.656 100.587L466.662 99.5802L467.672 98.5706L468.343 97.3979L467.672 96.8931Z" fill="#ABBAC2"/>
<path fill-rule="evenodd" clip-rule="evenodd" d="M451.383 90.6786L450.207 91.5189L449.198 92.5254L448.36 93.7012L447.686 94.877L447.351 96.3883L447.185 97.0593V97.8996L447.351 98.5707L447.686 99.2447L448.191 99.9157L448.696 100.421L449.198 99.9157L448.36 98.9092L448.191 98.2351L448.025 97.7334V97.0593V96.5576L448.36 95.2125L449.031 94.0367L449.872 93.0302L450.709 92.0237L451.718 91.3527L451.383 90.6786Z" fill="#ABBAC2"/>
<path fill-rule="evenodd" clip-rule="evenodd" d="M462.298 90.5124L461.962 91.1834L464.48 92.3592L466.832 93.7012L469.183 95.2125L471.196 96.8931L471.701 96.3883L469.519 94.7108L467.167 93.0302L464.816 91.6882L462.298 90.5124Z" fill="#ABBAC2"/>
<path fill-rule="evenodd" clip-rule="evenodd" d="M477.915 105.456L477.411 105.625L478.251 108.143L478.586 110.83L478.753 113.518V116.371H479.088L479.257 113.518L479.088 110.83L478.753 108.143L477.915 105.456Z" fill="#ABBAC2"/>
<path fill-rule="evenodd" clip-rule="evenodd" d="M476.404 126.95L475.395 129.471L474.388 131.989L473.043 134.507L471.87 136.858L472.037 137.027L473.382 134.507L474.554 132.158L475.73 129.637L476.74 127.119L476.404 126.95Z" fill="#ABBAC2"/>
<path fill-rule="evenodd" clip-rule="evenodd" d="M465.656 145.926L462.298 149.958L465.825 145.926H465.656Z" fill="#ABBAC2"/>
<path fill-rule="evenodd" clip-rule="evenodd" d="M388.244 164.397L384.381 164.567L380.687 165.238L377.16 166.247L373.632 167.589L370.274 169.27L366.916 171.283L363.893 173.465L361.206 176.152L358.688 179.009L356.337 182.197L355.33 183.878L354.321 185.725L353.483 187.405L352.643 189.252L351.467 193.115L350.627 196.809L350.122 200.672V204.365L350.292 208.228L350.963 211.922L351.972 215.446L353.314 218.974L354.995 222.332L357.008 225.524L359.19 228.546L361.877 231.4L364.734 233.921L367.923 236.269L369.603 237.279L371.45 238.285L373.297 239.126L375.144 239.966L378.837 241.142L382.534 241.979L386.397 242.484H390.09L393.953 242.314L397.647 241.643L401.171 240.637L404.699 239.292L408.057 237.614L411.415 235.598L414.438 233.416L417.125 230.729L419.646 227.875L421.994 224.683L423.004 223.006L424.01 221.156L424.851 219.309L425.691 217.462L426.867 213.769L427.704 210.075L428.209 206.212V202.349L428.039 198.656L427.368 194.962L426.362 191.265L425.017 187.907L423.339 184.383L421.323 181.191L419.141 178.168L416.454 175.481L413.6 172.794L410.408 170.612L408.728 169.605L406.881 168.596L405.034 167.758L403.187 166.918L399.494 165.742L395.8 164.902L391.937 164.397H388.244Z" fill="#F3F8FA"/>
<path fill-rule="evenodd" clip-rule="evenodd" d="M391.937 164.397L395.8 164.902L399.494 165.742L403.187 166.918L405.034 167.758L406.881 168.596L408.728 169.605L410.408 170.612L413.6 172.794L416.454 175.481L419.141 178.168L421.323 181.191L423.339 184.383L425.017 187.907L426.362 191.265L427.368 194.962L428.039 198.656L428.209 202.349V206.212L427.704 210.075L426.867 213.769L425.691 217.462L424.85 219.309L424.01 221.156L423.004 223.006L421.994 224.683L419.645 227.875L417.125 230.729L414.437 233.416L411.415 235.598L408.057 237.614L404.699 239.292L401.171 240.637L397.647 241.643L393.953 242.314L390.09 242.484H386.397L382.534 241.979L378.837 241.142L375.143 239.966L373.297 239.126L371.45 238.285L369.603 237.279L367.922 236.269L364.734 233.921L361.877 231.4L359.19 228.546L357.008 225.524L354.995 222.332L353.314 218.974L351.972 215.446L350.962 211.922L350.291 208.228L350.122 204.365V200.672L350.627 196.809L351.467 193.115L352.643 189.252L353.483 187.406L354.321 185.725L355.33 183.878L356.337 182.198L358.688 179.009L361.206 176.152L363.893 173.465L366.916 171.283L370.274 169.27L373.632 167.589L377.16 166.247L380.687 165.238L384.381 164.567L388.243 164.397H391.937ZM385.892 159.697L383.876 159.863L381.693 160.202L379.677 160.704L375.648 161.713L371.619 163.225L369.769 164.062L367.922 165.071L366.076 166.247L364.398 167.254L362.551 168.596L360.871 169.941L359.359 171.283L357.848 172.794L356.337 174.475L354.995 176.152L353.65 177.833L352.308 179.68L351.132 181.526L350.122 183.543L349.116 185.559L348.275 187.572L347.604 189.754L346.933 191.77L346.428 193.952L345.924 195.969L345.588 198.151L345.422 200.333V202.349V204.532V206.717L345.758 208.73L345.924 210.912L346.428 212.928L347.435 216.958L348.949 220.821L349.956 222.837L350.796 224.683L351.972 226.53L353.145 228.211L354.321 230.058L355.666 231.569L357.008 233.247L358.519 234.758L360.2 236.269L361.877 237.614L363.558 238.956L365.405 240.301L367.251 241.308L369.267 242.484L371.28 243.49L373.297 244.33L375.479 245.001L377.495 245.676L379.677 246.177L381.86 246.682L383.876 246.848L386.058 247.187H392.442L394.455 246.848L396.637 246.682L398.653 246.177L402.682 245.171L406.715 243.659L408.562 242.653L410.408 241.813L412.255 240.637L413.936 239.461L415.783 238.285L417.46 236.943L418.971 235.598L420.483 234.087L421.994 232.409L423.339 230.729L424.681 229.051L426.026 227.201L427.202 225.354L428.209 223.341L429.215 221.325L430.055 219.143L430.726 217.127L431.4 215.111L431.902 212.928L432.407 210.746L432.742 208.73L432.912 206.548V204.365V202.349V200.167L432.573 198.151L432.407 195.969L431.902 193.952L430.896 189.923L429.384 185.894L428.378 184.044L427.538 182.198L426.362 180.351L425.186 178.504L424.01 176.826L422.668 175.146L421.323 173.634L419.812 172.123L418.134 170.612L416.454 169.27L414.773 167.925L412.926 166.583L411.079 165.407L409.066 164.397L407.05 163.391L405.034 162.55L402.852 161.879L400.836 161.208L398.653 160.704L396.637 160.202L394.455 159.863L392.273 159.697H385.892Z" fill="#FF5959"/>
<path fill-rule="evenodd" clip-rule="evenodd" d="M416.118 193.451L409.066 195.969L391.266 204.196V204.867L416.118 193.451Z" fill="#DBECF4"/>
<path fill-rule="evenodd" clip-rule="evenodd" d="M415.949 192.946L387.234 203.19L388.244 205.541L415.949 192.946Z" fill="#112963"/>
<path fill-rule="evenodd" clip-rule="evenodd" d="M388.243 201.007L387.569 201.173H387.068L386.397 201.509L385.892 201.844L385.556 202.349L385.221 202.854L384.885 203.525L384.716 204.03L384.885 204.701V205.372L385.221 205.877L385.556 206.378L386.058 206.883L386.563 207.219L387.234 207.388L387.739 207.554H388.41L389.081 207.388L389.586 207.219L390.09 206.883L390.592 206.378L390.931 205.877L391.097 205.206L391.266 204.532V203.861L391.097 203.356L390.931 202.685L390.592 202.183L390.09 201.844L389.419 201.509L388.914 201.173L388.243 201.007Z" fill="#112963"/>
<path fill-rule="evenodd" clip-rule="evenodd" d="M387.234 203.356L386.898 203.694L386.563 204.03L386.227 204.532V205.206L386.563 205.707L386.898 206.043L387.403 206.378H387.739L388.41 206.212L388.914 205.707L389.25 205.206L389.419 204.532L389.25 204.03L388.914 203.694L388.41 203.356H387.234Z" fill="#0F2760"/>
<path fill-rule="evenodd" clip-rule="evenodd" d="M404.194 170.443L403.692 170.781L403.357 171.117L403.187 171.618L403.357 172.123L403.692 172.794L404.363 173.804H405.37L406.044 173.634L406.545 173.299L406.881 172.963L407.05 172.459L406.881 171.954L406.715 171.283L406.044 170.443H404.194Z" fill="#112963"/>
<path fill-rule="evenodd" clip-rule="evenodd" d="M387.234 166.413L386.227 166.918L385.722 167.42L385.387 167.925V168.43V168.765L385.892 169.27L386.397 169.772L387.403 170.107L388.41 169.605L388.914 169.1L389.25 168.596V168.094V167.758L388.745 167.254L388.243 166.749L387.234 166.413Z" fill="#112963"/>
<path fill-rule="evenodd" clip-rule="evenodd" d="M370.108 172.123L368.932 172.292L368.427 173.299L368.258 173.97L368.092 174.475L368.258 174.976L368.596 175.315L369.268 175.481L369.938 175.651L370.945 175.481L371.619 174.475L371.785 173.804V173.299L371.619 172.794L371.281 172.459L370.779 172.292L370.108 172.123Z" fill="#112963"/>
<path fill-rule="evenodd" clip-rule="evenodd" d="M357.679 185.559L357.008 185.894L356.167 186.565V187.741L356.337 188.412L356.506 188.917L356.841 189.252H357.848L358.688 188.917L359.529 188.243V187.236L359.359 186.396L359.024 185.894L358.688 185.725L358.183 185.559H357.679Z" fill="#112963"/>
<path fill-rule="evenodd" clip-rule="evenodd" d="M353.483 203.356L352.979 203.694L352.643 204.365L352.138 205.372L352.643 206.378L353.145 206.883L353.65 207.219H354.154L354.656 207.053L354.995 206.717L355.496 206.212L355.832 205.206L355.33 204.196L354.825 203.694L354.321 203.356H353.483Z" fill="#112963"/>
<path fill-rule="evenodd" clip-rule="evenodd" d="M359.024 220.821L358.519 220.99L358.184 221.325L358.017 221.83V222.501V223.677L359.024 224.179L359.695 224.348H360.2L360.701 224.179L361.04 223.843L361.206 223.341L361.375 222.667L361.206 221.661L360.366 220.99L359.529 220.821H359.024Z" fill="#112963"/>
<path fill-rule="evenodd" clip-rule="evenodd" d="M372.961 233.08L372.29 233.247L371.785 233.585L371.45 233.921L371.28 234.422L371.45 234.927L371.619 235.598L372.29 236.438H373.466L374.137 236.269L374.642 236.103L374.977 235.767L375.143 235.263L374.977 234.592L374.642 233.921L373.968 233.08H372.961Z" fill="#112963"/>
<path fill-rule="evenodd" clip-rule="evenodd" d="M390.931 236.774L389.921 237.279L389.419 237.78L389.081 238.285V238.621V239.126L389.586 239.63L390.09 239.966L391.097 240.468L392.103 239.966L392.608 239.461L392.944 238.956V238.455V237.95L392.442 237.614L391.937 237.109L390.931 236.774Z" fill="#112963"/>
<path fill-rule="evenodd" clip-rule="evenodd" d="M408.392 231.233L407.386 231.4L406.715 232.24L406.545 233.08V233.585L406.715 234.087L407.05 234.422L407.555 234.592H409.402L409.904 233.585L410.073 232.911L410.239 232.24L410.073 231.904L409.737 231.569L409.066 231.4L408.392 231.233Z" fill="#112963"/>
<path fill-rule="evenodd" clip-rule="evenodd" d="M420.988 217.462L420.483 217.632L419.812 217.967L418.805 218.638V219.645L418.971 220.319L419.307 220.821L419.645 221.156L420.147 221.325L420.652 221.156L421.323 220.99L422.163 220.319V219.143L421.994 218.469L421.828 217.967L421.492 217.632L420.988 217.462Z" fill="#112963"/>
<path fill-rule="evenodd" clip-rule="evenodd" d="M423.844 199.662L423.339 199.998L422.834 200.672L422.499 201.678L423.004 202.685L423.505 203.19L424.01 203.525H424.346L424.85 203.356L425.355 203.02L425.857 202.519L426.192 201.509L425.691 200.502L425.186 199.998L424.681 199.662H423.844Z" fill="#112963"/>
<path fill-rule="evenodd" clip-rule="evenodd" d="M418.134 182.367L417.629 182.533L417.294 182.872L417.125 183.373L416.958 184.214L417.125 185.22L417.965 185.894L418.805 186.06H419.307L419.812 185.894L420.147 185.559L420.316 185.054V184.383V183.207L419.307 182.702L418.636 182.367H418.134Z" fill="#112963"/>
<path fill-rule="evenodd" clip-rule="evenodd" d="M389.25 164.231L386.563 164.397L384.045 164.567L381.693 165.071L379.176 165.573L376.655 166.413L374.303 167.254L371.955 168.26L369.769 169.436L369.434 170.947L371.619 169.771L373.968 168.931L376.153 168.094L378.501 167.42L381.022 166.749L383.371 166.413L385.892 166.247L388.243 166.078L390.592 166.247L392.777 166.413L394.96 166.749L397.311 167.084L399.494 167.758L401.676 168.429L403.858 169.436L406.044 170.442L409.402 172.292L412.591 174.641L415.447 177.162L417.965 179.849L420.316 182.872L422.333 185.894L424.01 189.252L425.355 192.61L426.362 196.304L427.033 199.831L427.368 203.525V207.219L426.866 211.082L426.192 214.775L425.017 218.469L423.505 221.996L424.01 221.325V221.156L425.017 218.974L425.857 216.791L426.697 214.609L427.202 212.424L427.704 210.241L428.039 207.89L428.208 205.707V203.356V200.838L427.873 198.151L427.537 195.464L426.866 192.946L426.026 190.428L425.017 187.907L424.01 185.559L422.668 183.207L421.157 181.022L419.645 178.839L417.795 176.826L415.949 174.976L413.936 173.13L411.75 171.452L409.402 169.941L406.881 168.596L404.699 167.589L402.516 166.749L400.334 165.909L398.148 165.407L395.966 164.902L393.615 164.567L391.432 164.397L389.25 164.231Z" fill="#DBECF4"/>
<path fill-rule="evenodd" clip-rule="evenodd" d="M374.303 167.254L371.955 168.26L369.769 169.436L372.121 168.26L374.303 167.254Z" fill="#E65557"/>
<path fill-rule="evenodd" clip-rule="evenodd" d="M387.569 202.854L387.068 203.19L386.732 203.525L386.563 204.03V204.701L386.732 205.206L387.234 205.707L387.739 205.877H388.074L388.41 205.707L389.081 205.372L389.419 204.701L389.586 204.365V204.03L389.419 203.525L389.081 203.19L388.579 202.854H387.569Z" fill="#FF5959"/>
<path fill-rule="evenodd" clip-rule="evenodd" d="M381.86 154.492L370.779 156.339L372.121 164.231L383.205 162.384L381.86 154.492Z" fill="#FF5959"/>
<path fill-rule="evenodd" clip-rule="evenodd" d="M375.479 142.737L373.968 142.903L371.955 143.408L370.443 144.249L368.932 145.255L367.756 146.431L366.746 147.607L365.74 149.118L365.069 150.46L364.564 151.971L364.229 153.316L364.062 154.658L363.893 156.003V157.179V158.186L364.062 158.857L364.229 159.362L364.564 159.528L366.411 160.033L368.427 160.202L370.443 160.368H372.29L374.303 160.202L376.153 160.033L379.511 159.192L382.534 158.352L385.052 157.346L386.898 156.339L388.074 155.499L388.243 154.994V154.157L388.074 153.316L387.739 152.307L387.234 151.3L386.563 150.124L385.723 148.949L384.716 147.773L383.71 146.597L382.534 145.591L381.189 144.584L379.847 143.913L378.501 143.239L376.99 142.903L375.479 142.737Z" fill="#4066C2"/>
<path fill-rule="evenodd" clip-rule="evenodd" d="M375.648 145.255L374.642 145.424L376.319 146.095L377.83 146.766L379.176 147.607L380.518 148.613L381.693 149.789L382.7 150.965L383.876 152.307L385.052 153.652L384.716 151.805L383.876 150.124L382.869 148.613L381.524 147.271L380.013 146.262L379.176 145.76L378.335 145.424L377.495 145.255H375.648Z" fill="white"/>
<path fill-rule="evenodd" clip-rule="evenodd" d="M246.682 342.23L244.164 342.399L241.813 342.735L239.63 343.24L237.614 343.911L235.598 344.751L232.071 346.598L228.377 348.445L226.53 349.116L224.683 349.787L222.667 350.291L220.485 350.461H218.133L215.616 350.122L210.912 349.285L207.053 348.611L205.372 348.445L203.694 348.275L201.845 348.445L200.167 348.611L198.151 349.116L196.135 349.62L193.786 350.461L191.265 351.467L184.885 354.321L176.826 358.353L174.641 359.695L172.292 361.04L167.758 364.063L163.391 367.421L159.026 371.284L154.828 375.313L150.629 379.677L146.766 384.381L142.903 389.084L139.379 394.119L136.018 399.158L132.829 404.197L130.142 409.233L127.455 414.271L125.272 419.31L123.426 424.179L121.914 428.88L120.569 433.413L119.393 438.117L118.387 442.986L117.547 447.689L116.205 457.093L115.029 465.656L114.358 473.046L114.022 478.922L113.684 484.127L115.534 484.967L117.547 485.638L119.729 486.309L122.25 486.983L127.96 488.159L134.34 489.166L141.561 490.006L149.453 490.677L158.017 491.348L167.084 491.684L176.657 492.019L186.565 492.188L207.388 492.358L229.048 492.188L250.711 491.684L272.039 491.013L292.357 490.172L311.164 489.166L327.788 488.325L352.474 486.814L361.711 486.309L361.542 484.463L361.04 479.091L360.535 475.228L360.03 470.695L359.024 465.49L358.017 459.611L356.672 453.061L354.825 446.009L352.809 438.452L350.461 430.56L347.604 422.163L344.412 413.431L340.553 404.532L336.354 395.129L334.172 390.595L331.651 386.227L329.133 382.364L326.446 378.502L323.593 374.977L320.906 371.785L317.883 368.763L314.86 365.909L311.838 363.388L308.815 361.04L305.623 358.855L302.431 356.841L299.242 354.995L296.05 353.314L292.862 351.803L289.67 350.461L286.481 349.285L283.458 348.275L277.413 346.429L271.534 345.253L266.16 344.246L261.124 343.575L256.59 343.07L249.369 342.399L246.682 342.23Z" fill="#A1B0E6"/>
<path fill-rule="evenodd" clip-rule="evenodd" d="M430.727 173.299L423.844 177.328L429.384 187.07L436.27 183.038L430.727 173.299Z" fill="#FF5959"/>
<path fill-rule="evenodd" clip-rule="evenodd" d="M432.573 165.909L431.231 166.078L429.72 166.413L428.544 166.749L427.538 167.084L426.528 167.42L426.026 167.925L425.521 168.26L425.355 168.596L425.691 170.612L426.192 172.459L426.867 174.305L427.538 176.152L428.209 177.833L429.215 179.51L431.062 182.533L433.078 185.054L434.925 187.07L436.436 188.412L437.612 189.083H438.117L438.788 188.917L439.628 188.412L440.468 187.741L441.306 186.901L442.146 185.894L442.986 184.549L443.657 183.373L444.328 181.862L445.002 180.52L445.338 179.009L445.673 177.328V175.817L445.504 174.305L445.002 172.794L444.328 171.452L443.152 169.941L441.81 168.596L440.468 167.589L438.957 166.918L437.276 166.413L435.765 166.078L434.254 165.909H432.573Z" fill="#4066C2"/>
<path fill-rule="evenodd" clip-rule="evenodd" d="M442.315 173.13V174.81L442.146 176.488L441.81 177.999L441.306 179.51L440.635 181.022L439.964 182.533L439.123 184.044L438.283 185.725L439.794 184.718L441.139 183.373L442.146 181.862L442.986 180.184L443.491 178.338V177.497V176.488L443.322 175.651L443.152 174.641L442.817 173.804L442.315 173.13Z" fill="white"/>
<path fill-rule="evenodd" clip-rule="evenodd" d="M280.436 251.552L278.084 251.887L272.541 252.558L265.994 253.734L257.766 254.91L253.398 255.414L249.369 255.75L245.506 255.919L242.148 255.75L235.934 255.581H233.08L230.393 255.75L227.875 256.085L225.524 256.59L223.003 257.431L220.654 258.603L218.303 260.115L215.951 262.131L213.433 264.818L210.746 268.01L208.395 271.368L206.548 274.39L205.206 277.078L204.366 279.595L204.196 280.771L204.03 281.778V282.784L204.196 283.625L204.366 284.634L204.867 285.305L205.206 285.976L205.877 286.647L206.548 287.318L207.388 287.823L208.395 288.158L209.401 288.494L211.922 288.999L214.775 289.334L218.134 289.168L221.83 288.833L226.026 288.158L230.729 287.318L236.605 285.807L242.484 284.296L245.506 283.625L248.36 283.123L251.382 282.784L254.239 282.618L257.092 282.784L259.949 283.289L261.291 283.625L262.636 284.296L263.978 284.8L265.323 285.641L266.665 286.481L267.841 287.487L269.183 288.663L270.528 290.005L271.703 291.35L272.879 293.028L274.055 294.878L275.228 296.725L278.084 301.594L281.273 306.294L284.634 310.493L287.992 314.525L291.351 318.385L294.709 321.746L298.067 324.935L301.259 327.791L304.281 330.309L307.135 332.491L311.669 336.019L314.86 338.032L316.036 338.706L316.873 337.361L319.059 333.498L321.912 327.957L323.423 324.599L324.935 321.072L326.277 317.547L327.453 313.851L328.462 310.326L328.964 306.799L329.133 305.118V303.607V301.93L328.964 300.584L328.628 299.073L328.127 297.9L327.453 296.725L326.615 295.715L324.935 293.702L323.423 291.517L322.081 289.334L320.906 287.152L318.72 282.449L316.707 277.579L315.531 275.228L314.186 272.879L312.675 270.358L311.164 268.01L309.317 265.658L307.135 263.476L304.617 261.124L301.76 259.108L298.738 257.092L296.22 255.581L293.702 254.239L291.351 253.232L289.168 252.392L286.983 251.887L284.97 251.721L282.784 251.552H280.436Z" fill="#7FC991"/>
<path fill-rule="evenodd" clip-rule="evenodd" d="M434.925 264.147L433.247 264.313L431.902 264.482L430.56 264.818L428.039 265.824L425.691 267.169L423.004 268.345L419.812 269.687L417.965 270.192L415.949 270.694L413.6 271.032L411.079 271.368H405.705L403.357 271.199L401.171 271.032L397.142 270.192L393.449 269.521L390.257 268.681L388.745 268.511L387.234 268.345H385.723L384.211 268.681L382.7 269.016L381.022 269.521L379.847 270.192L378.837 270.863L378 271.703L377.326 272.374L376.655 273.381L376.153 274.221L375.313 276.237L374.303 278.589L373.13 281.107L372.456 282.618L371.619 283.96L370.61 285.471L369.268 287.152L367.251 289.334L365.405 291.015L363.389 292.692L361.375 293.868L359.359 294.878L357.343 295.884L353.483 297.396L349.787 298.738L347.94 299.412L346.262 300.249L344.582 301.259L343.071 302.265L341.559 303.607L340.383 305.288L338.537 307.805L337.025 310.493L335.683 313.349L334.674 316.202L333.833 319.059L333.332 321.912L332.996 324.768L332.827 327.452V330.14L333.162 332.491L333.833 334.674L334.507 336.69L335.514 338.201L336.185 339.041L336.856 339.543L337.53 340.048L338.367 340.553L339.208 340.888L340.048 341.054L341.054 341.224H342.064L343.24 341.054L344.246 340.719L346.598 339.882L348.95 338.536L351.467 336.859L353.985 334.843L359.529 330.475L362.551 328.293L365.74 325.941L369.098 323.759L372.456 321.746L376.153 320.065L380.013 318.554L382.029 317.883L384.045 317.378L386.227 317.043L388.41 316.707L390.592 316.538H392.777L394.79 316.707L396.807 317.043L400.67 317.714L404.363 318.554L408.057 319.059L409.904 319.225H413.431L415.278 318.889L417.125 318.385L418.971 317.547L420.317 316.873L421.323 316.202L422.163 315.362L423.004 314.691L424.18 313.18L425.186 311.502L426.192 309.822L427.368 308.141L428.88 306.463L429.889 305.623L431.062 304.783L432.407 303.946L433.749 303.272L435.094 302.77L436.436 302.265L439.293 301.594L442.146 301.259H448.025L450.878 301.594L453.565 301.93L458.77 302.77L461.122 302.936L463.138 303.105H464.985L466.662 302.77L467.337 302.434L468.007 302.096L468.509 301.594L468.848 301.089L469.35 300.083L469.685 298.907L470.02 297.731V296.389V295.213L469.854 293.868L469.519 292.357L469.014 291.015L467.838 287.992L466.161 285.136L464.145 282.113L461.793 279.26L459.106 276.403L456.252 273.716L453.23 271.199L450.038 269.182L446.68 267.336L443.322 265.824L441.641 265.323L439.964 264.818L438.283 264.482L436.605 264.313L434.925 264.147Z" fill="#7FC991"/>
<path fill-rule="evenodd" clip-rule="evenodd" d="M398.149 284.634L394.624 285.807L391.266 286.983L388.074 288.494L384.885 290.005L381.693 291.686L378.502 293.366L375.479 295.213L372.456 297.226L369.603 299.242L366.747 301.425L363.893 303.776L361.206 306.128L358.519 308.646L356.001 311.164L353.65 313.684L351.298 316.372L348.949 319.225L346.764 322.081L344.751 325.104L342.735 328.127L340.888 331.149L339.208 334.338L337.53 337.53L335.849 340.719L334.507 344.077L333.162 347.269L331.987 350.796L330.811 354.154L329.973 357.682L329.133 361.206L327.788 368.261L326.782 375.313L326.111 382.534L325.606 389.585L325.27 396.807L325.104 404.028V411.079V418.3L325.44 425.355L326.111 439.628L327.286 453.901L328.798 468.174L329.638 475.228L330.644 482.28L329.133 468.174L328.127 453.901L327.286 439.628L326.782 425.355L326.615 411.079L326.782 404.028L326.951 396.807L327.286 389.755L327.788 382.7L328.628 375.648L329.638 368.596L330.811 361.542L331.651 358.017L332.491 354.656L333.498 351.298L334.674 347.94L336.019 344.582L337.361 341.393L338.872 338.201L340.553 335.009L342.23 331.986L344.077 328.964L345.924 325.941L347.94 322.919L350.122 320.065L352.308 317.378L354.656 314.691L357.008 312.004L359.359 309.486L362.046 306.968L364.564 304.617L367.251 302.265L370.108 300.083L372.961 297.9L375.814 295.884L378.837 294.037L381.86 292.191L385.052 290.344L388.244 288.833L391.432 287.318L394.79 285.976L398.149 284.634Z" fill="#406352"/>
<path fill-rule="evenodd" clip-rule="evenodd" d="M294.204 272.205L296.891 273.55L298.067 274.221L299.409 275.061L300.418 276.068L301.594 277.078L302.431 278.25L303.272 279.426L304.783 281.947L306.128 284.634L307.134 287.487L307.975 290.344L309.486 296.051L310.493 301.93L311.502 307.805L312.339 313.685L313.851 325.606L315.026 337.53L317.378 361.206L319.73 385.052L321.912 408.897L324.43 432.576L327.117 456.422L325.27 432.576L323.423 408.731L321.241 384.885L319.059 361.04L316.707 337.361L315.362 325.439L314.525 319.394L313.684 313.515L312.675 307.639L312.173 304.617L311.668 301.76L310.326 295.884L309.652 293.028L308.815 290.005L307.805 287.152L306.799 284.465L305.288 281.778L303.776 279.26L302.77 278.084L301.76 276.908L300.754 275.902L299.578 274.892L298.236 274.055L296.891 273.381L294.204 272.205Z" fill="#406352"/>
<path fill-rule="evenodd" clip-rule="evenodd" d="M364.9 353.985L363.053 354.154L361.206 354.49L359.19 355.161L356.841 356.001L354.49 357.008L351.803 358.353L349.285 359.864L346.933 361.375L344.751 363.053L342.901 364.9L341.223 366.58L339.712 368.427L337.025 372.29L334.674 375.984L332.322 379.677L330.98 381.358L329.638 383.035L328.127 384.716L326.446 386.227L325.606 386.898L324.935 387.908L324.43 388.745L323.928 389.921L323.593 391.097L323.423 392.273L323.254 395.129V397.982L323.759 401.005L324.264 404.197L325.104 407.22L325.941 410.242L326.951 413.095L328.798 417.965L330.14 421.323L330.811 422.499L331.651 422.163L334.507 420.652L338.536 418.47L343.741 415.112L346.764 413.095L349.787 410.913L352.978 408.392L356.167 405.708L359.359 402.686L362.551 399.494L365.74 395.966L368.763 392.273L371.114 389.419L373.632 387.068L375.984 385.221L378.501 384.045L380.853 383.035L383.205 382.7L385.556 382.534H388.074L390.426 383.035L392.777 383.54L395.126 384.381L397.478 385.221L402.181 387.068L406.715 388.915L410.408 390.09L413.936 391.097L416.958 391.768L419.645 392.106L422.163 392.273L424.179 392.106L426.026 391.602L426.697 391.266L427.368 390.931L428.039 390.426L428.544 389.921L428.88 389.25L429.215 388.579L429.384 387.739L429.551 387.068V385.221L429.215 383.035L428.378 380.518L427.202 377.831L425.691 374.977L424.01 371.955L422.333 369.603L420.652 367.587L418.805 366.076L416.958 364.9L415.112 363.893L413.262 363.222L411.079 362.717L408.897 362.382L406.715 362.216L401.51 361.711L398.653 361.375L395.631 360.871L392.273 360.2L388.745 359.359L382.029 357.513L376.824 356.001L372.29 354.825L370.443 354.321L368.427 353.985H364.9Z" fill="#7FC991"/>
<path fill-rule="evenodd" clip-rule="evenodd" d="M347.774 377.664L345.588 380.182L343.406 382.869L341.559 385.723L339.878 388.579L338.367 391.602L337.025 394.79L335.683 397.982L334.674 401.174L333.667 404.363L332.827 407.721L332.156 411.079L331.485 414.437L331.149 417.799L330.644 421.157L330.14 427.873L329.973 434.759L330.14 441.475L330.475 448.191L331.149 455.077L331.986 461.793L332.996 468.343L334.172 475.059L335.514 481.609L334.674 474.893L333.833 468.343L332.996 461.627L332.491 454.907L331.986 448.191L331.82 441.475V434.759L331.986 428.042L332.491 421.323L333.162 414.607L333.833 411.415L334.338 408.057L335.178 404.868L336.019 401.51L336.856 398.318L338.032 395.129L339.207 392.106L340.719 389.084L342.23 386.058L343.911 383.205L345.758 380.351L347.774 377.664Z" fill="#406352"/>
<path fill-rule="evenodd" clip-rule="evenodd" d="M463.474 292.862L463.64 294.709V295.715L463.304 296.555L462.969 296.891L462.633 297.226L461.793 297.562H459.946L458.099 297.06L456.083 296.725L452.39 295.715L450.373 295.213L448.527 294.878L446.514 294.709L444.497 294.539L442.481 294.709L440.635 294.878L438.618 295.213L436.605 295.715L434.759 296.22L432.912 297.06L431.062 297.9L429.384 298.907L427.704 300.083L426.192 301.259L423.17 303.776L417.46 309.151L416.118 310.326L414.438 311.333L412.926 312.173L411.079 312.675L409.233 313.18L407.386 313.349H405.539L403.692 313.18L399.829 312.675L396.136 311.838L392.273 311.164L388.41 310.326L386.397 310.157L384.381 309.991L382.364 309.822L380.348 309.991L378.502 310.493L376.489 311.164L374.642 311.838L372.961 312.675L369.434 314.691L366.245 316.873L363.222 319.394L360.2 321.912L357.343 324.599L354.656 327.453L357.512 324.768L360.535 322.248L363.558 319.896L366.747 317.714L369.938 315.531L373.466 313.685L375.143 313.014L376.99 312.339L378.671 311.838L380.518 311.502L382.534 311.333H384.381L386.227 311.668L388.074 312.004L391.937 312.675L395.8 313.515L399.494 314.356L403.523 314.86L405.539 315.027H407.555L409.568 314.86L411.584 314.525L413.6 313.851L415.447 312.844L417.125 311.838L418.636 310.493L424.346 305.118L427.202 302.601L430.225 300.249L431.902 299.242L433.583 298.236L435.26 297.562L437.107 296.891L438.957 296.389L440.804 296.051L442.651 295.715L444.497 295.549H446.514L448.36 295.715L452.22 296.389L456.083 297.226L457.93 297.562L459.946 297.9H461.793L462.298 297.731L462.802 297.396L463.138 297.06L463.474 296.725L463.809 295.715V294.709L463.474 292.862Z" fill="#406352"/>
<path fill-rule="evenodd" clip-rule="evenodd" d="M381.358 376.319L379.847 376.489L378.166 376.655L376.655 377.16L375.143 377.831L373.801 378.502L372.456 379.176L369.938 381.022L367.587 382.869L365.405 384.885L363.222 386.898L359.024 391.097L354.995 395.465L351.132 400.165L347.435 404.868L343.911 409.568L351.803 400.669L355.832 396.302L360.03 392.106L364.229 388.074L366.411 386.058L368.763 384.211L371.114 382.364L373.466 380.687L375.984 379.342L377.326 378.84L378.671 378.502L380.013 378.166H381.358L384.211 378.335L387.068 378.84L389.921 379.511L392.777 380.351L395.631 381.189L401.171 383.205L406.881 385.221L412.424 387.068L415.447 387.739L418.3 388.243L419.812 388.41L421.323 388.579L422.834 388.41L424.346 388.243H421.323L418.47 387.739L415.613 387.068L412.76 386.227L407.216 384.045L401.676 381.863L396.136 379.677L393.279 378.84L390.426 377.831L387.403 377.16L384.381 376.655L382.869 376.489L381.358 376.319Z" fill="#406352"/>
<path fill-rule="evenodd" clip-rule="evenodd" d="M273.381 286.312L275.061 289.504L277.078 292.526L280.937 298.571L285.136 304.447L289.504 310.157L294.204 315.531L296.555 318.218L299.073 320.736L301.76 323.088L304.617 325.439L307.47 327.452L309.151 328.462L310.662 329.302L307.806 327.117L305.118 324.768L302.601 322.248L300.083 319.73L295.38 314.356L290.846 308.981L286.481 303.441L282.113 297.731L273.381 286.312Z" fill="#406352"/>
<path fill-rule="evenodd" clip-rule="evenodd" d="M96.8931 229.722L49.2021 235.598L53.7361 265.824L102.267 255.75L96.8931 229.722Z" fill="#A1B0E6"/>
<path fill-rule="evenodd" clip-rule="evenodd" d="M70.1912 210.075L49.2021 235.934L96.8931 229.888L70.1912 210.075Z" fill="#A1B0E6"/>
<path fill-rule="evenodd" clip-rule="evenodd" d="M96.8931 229.888L91.5188 234.422L86.1446 239.126L80.9397 243.826L75.9686 248.32L62.804 241.979L56.0877 238.956L49.2021 235.934L55.7522 239.461L62.4684 242.989L75.9009 249.705L76.2364 249.871L76.575 249.535L81.78 244.835L86.8156 239.966L92.0236 234.927L96.8931 229.888Z" fill="#4066C2"/>
<path fill-rule="evenodd" clip-rule="evenodd" d="M65.1555 247.522L63.6442 248.698L62.1329 249.871L59.2765 252.727L56.5894 255.581L55.4166 257.261L54.2408 258.773L55.9184 257.597L57.4297 256.421L60.2861 253.568L62.8039 250.711L64.1459 249.034L65.1555 247.522Z" fill="#4066C2"/>
<path fill-rule="evenodd" clip-rule="evenodd" d="M84.467 245.002L85.8091 246.682L87.3203 248.024L90.5123 250.711L93.7011 253.232L95.5479 254.408L97.2285 255.414L95.8865 253.903L94.3752 252.392L91.3526 249.705L87.9914 247.187L86.3138 246.011L84.467 245.002Z" fill="#4066C2"/>
<path fill-rule="evenodd" clip-rule="evenodd" d="M94.0367 229.051L88.6656 229.387L83.4575 229.888L73.0476 231.064L62.6347 232.409L57.4298 233.247L52.2249 234.256L57.4298 233.921L62.6347 233.585L73.2139 232.409L83.6268 230.898L88.8317 230.058L94.0367 229.051Z" fill="#4066C2"/>
<path fill-rule="evenodd" clip-rule="evenodd" d="M100.082 87.3204V130.813L100.251 137.027L100.587 143.239L101.092 149.284L101.763 155.329L102.769 161.208L103.779 167.084L105.121 172.794L106.632 178.504L108.313 184.214L109.99 189.588L112.006 195.128L114.188 200.333L116.54 205.541L119.058 210.577L121.745 215.616L124.601 220.485L127.455 225.188L130.647 229.722L133.836 234.087L137.194 238.455L140.721 242.484L144.415 246.513L148.108 250.376L152.141 254.069L156.17 257.597L160.199 260.955L164.397 264.147L168.765 267.169L173.299 269.857L177.833 272.544L182.367 275.061L187.236 277.244L188.917 278.084L190.764 279.26L192.441 280.436L193.952 281.778L195.298 283.123L196.64 284.634L197.985 286.312L199.157 288.158L200.167 290.005L201.007 291.855L201.844 293.868L202.349 296.051L202.854 298.067L203.356 300.249L203.525 302.601V304.783V309.317V311.668L203.356 313.851L202.854 316.036L202.519 318.218L201.844 320.231L201.007 322.248L200.167 324.094L199.157 325.941L197.985 327.791L196.809 329.302L195.464 330.98L194.122 332.325L192.441 333.667L190.93 334.843L189.252 336.019L187.405 336.859L182.702 339.207L178.168 341.559L173.634 344.246L169.27 347.1L164.902 350.122L160.704 353.314L156.674 356.672L152.642 360.2L148.782 363.893L145.086 367.756L141.561 371.619L138.034 375.818L134.676 380.013L131.484 384.547L128.461 389.084L125.439 393.784L122.752 398.487L120.068 403.523L117.716 408.562L115.364 413.766L113.182 418.971L111.166 424.346L109.488 429.889L107.808 435.43L106.296 440.97L105.121 446.849L103.945 452.559L103.105 458.435L102.434 464.48L101.763 470.525L101.593 476.57L101.427 482.785V526.277H375.313V482.785L375.143 476.404L374.808 470.023L374.303 463.809L373.466 457.594L372.456 451.549L371.45 445.504L369.938 439.628L368.427 433.749L366.747 428.042L364.734 422.333L362.717 416.789L360.366 411.415L357.848 406.21L355.161 401.005L352.474 395.966L349.451 390.931L346.428 386.227L343.07 381.524L339.712 377.16L336.185 372.795L332.491 368.596L328.628 364.564L324.599 360.704L320.57 357.008L316.372 353.65L312.004 350.291L307.47 347.1L302.936 344.246L298.402 341.393L293.533 338.872L288.663 336.52L283.794 334.507L281.778 333.667L280.1 332.661L278.25 331.485L276.739 330.14L275.228 328.628L273.716 327.117L272.374 325.439L271.198 323.593L270.192 321.746L269.182 319.73L268.345 317.714L267.671 315.698L267.169 313.349L266.834 311.164L266.495 308.815V306.463V304.281L266.834 301.93L267.169 299.747L267.671 297.562L268.345 295.379L269.182 293.366L270.023 291.35L271.198 289.504L272.374 287.657L273.716 286.145L275.061 284.465L276.573 283.123L278.084 281.778L279.931 280.602L281.611 279.595L283.624 278.755L288.494 276.573L293.197 274.221L297.897 271.534L302.6 268.847L307.134 265.824L311.502 262.802L315.698 259.444L319.896 255.919L323.928 252.223L327.957 248.36L331.651 244.33L335.345 240.301L338.872 235.934L342.23 231.4L345.422 226.866L348.445 221.996L351.467 217.127L354.154 212.088L356.841 207.053L359.19 201.678L361.542 196.304L363.558 190.93L365.574 185.22L367.251 179.51L368.763 173.804L370.108 167.925L371.28 161.879L372.29 155.834L372.961 149.62L373.466 143.408L373.801 137.194L373.968 130.813V87.3204H100.082Z" fill="#A1B0E6" fill-opacity="0.1732"/>
<path fill-rule="evenodd" clip-rule="evenodd" d="M90.0076 507.132L88.4962 507.471L86.9849 507.806L85.4736 508.308L84.1316 508.982L82.7865 509.819L81.4445 510.829L80.4349 511.835L79.2591 512.842L78.4218 514.187L77.5816 515.529L76.9106 516.874L76.4058 518.385L76.0703 519.897L75.7347 521.574V523.086V540.72V542.397L76.0703 543.908L76.4058 545.42L76.9106 546.931L77.5816 548.442L78.4218 549.618L79.2591 550.963L80.4349 552.136L81.4445 553.146L82.7865 553.986L84.1316 554.823L85.4736 555.497L86.9849 555.999L88.4962 556.504L90.0076 556.67L91.6881 556.839H383.71L385.387 556.67L386.898 556.504L388.41 555.999L389.921 555.497L391.266 554.823L392.608 553.986L393.953 553.146L394.96 552.136L396.136 550.963L396.976 549.618L397.813 548.442L398.487 546.931L398.989 545.42L399.324 543.908L399.66 542.397V540.72V523.086V521.574L399.324 519.897L398.989 518.385L398.487 516.874L397.813 515.529L396.976 514.187L396.136 512.842L394.96 511.835L393.953 510.829L392.608 509.819L391.266 508.982L389.921 508.308L388.41 507.806L386.898 507.471L385.387 507.132H90.0076Z" fill="#4C649E"/>
<path fill-rule="evenodd" clip-rule="evenodd" d="M161.208 184.549L156.675 184.718L152.141 185.054L147.773 185.559L143.744 186.565L141.728 187.07L139.881 187.741L138.034 188.581L136.187 189.419L134.507 190.428L132.829 191.435L133.669 193.786L134.676 196.64L136.187 200.167L138.203 204.701L140.721 209.74L143.913 215.28L147.437 221.156L149.454 224.179L151.636 227.201L153.987 230.393L156.505 233.416L159.192 236.608L162.049 239.63L165.071 242.819L168.26 245.842L171.618 248.698L175.146 251.552L178.839 254.239L182.702 256.926L186.901 259.444L191.099 261.795L195.633 263.977L200.333 265.994L203.19 267.671L205.877 269.352L208.395 271.199L210.912 273.215L215.446 276.908L219.645 280.937L223.341 284.634L226.7 288.328L232.409 295.044L234.758 297.731L236.774 299.913L238.79 301.425L239.63 301.93L240.468 302.265L241.308 302.434H241.979L242.653 302.096L243.49 301.594L244.164 300.923L244.835 299.913L245.337 298.571L246.011 297.06L246.682 295.549L247.353 294.037L249.034 291.015L251.216 287.992L253.568 285.136L256.255 282.283L259.108 279.426L262.131 276.739L265.153 274.221L268.345 271.703L271.534 269.352L277.413 265.323L282.784 261.795L286.817 259.444L289.839 257.766L290.175 257.597L295.044 254.408L299.913 251.047L304.617 247.689L308.981 243.995L313.18 240.132L317.378 236.103L321.072 231.904L324.765 227.706L328.127 223.341L331.149 218.807L334.003 214.274L336.52 209.74L338.872 205.206L340.719 200.672L342.399 195.969L343.911 191.435L341.728 191.099L336.185 190.259L332.322 189.754L327.788 189.419L322.752 189.083L317.547 188.917H311.838L306.128 189.083L300.249 189.588L294.373 190.594L291.517 191.099L288.663 191.77L285.976 192.61L283.289 193.617L280.602 194.627L278.25 195.799L275.733 197.144L273.55 198.656L272.374 199.327L271.199 199.998L269.857 200.672L268.511 201.007L265.489 201.678L262.131 202.183H254.743L250.711 201.678L246.513 201.173L241.979 200.502L237.445 199.496L227.706 197.311L207.219 192.275L196.809 189.754L186.23 187.572L181.022 186.731L175.986 185.894L170.947 185.22L166.078 184.885L161.208 184.549Z" fill="#A1B0E6"/>
<path fill-rule="evenodd" clip-rule="evenodd" d="M239.125 315.027L238.119 315.196L237.109 315.362L236.269 315.867L235.432 316.538L234.592 317.378L233.921 318.385L233.582 319.56L233.416 320.401L233.246 321.407L233.416 322.417L233.582 323.257L233.921 324.264L234.256 325.104L234.927 325.941L235.598 326.446L236.438 327.117L237.445 327.286L238.285 327.453L239.292 327.286L240.132 327.117L240.972 326.615L241.643 326.111L242.314 325.27L242.653 324.768L242.988 324.094L243.324 322.583L243.49 321.072L243.155 319.56L242.653 318.049L241.979 316.873L241.142 315.867L240.468 315.531L239.966 315.196L239.125 315.027Z" fill="#A1B0E6"/>
<path fill-rule="evenodd" clip-rule="evenodd" d="M229.387 302.936L228.882 303.105L228.211 303.441L227.706 303.946L227.201 304.447L226.866 305.118L226.53 305.792L226.364 306.968L226.53 308.141L227.035 309.151L227.371 309.652L227.875 310.157L228.377 310.493L229.048 310.662H230.058L230.729 310.493L231.234 310.157L231.735 309.822L232.071 309.317L232.409 308.646L232.745 307.639V306.63L232.576 305.792L232.24 304.952L231.905 304.112L231.234 303.441L230.559 303.105L230.058 302.936H229.387Z" fill="#A1B0E6"/>
<path fill-rule="evenodd" clip-rule="evenodd" d="M348.949 124.097L348.109 124.266L347.269 124.432L345.086 124.937L339.878 126.95L336.69 128.126L332.996 129.302L329.469 130.311L325.775 130.982L322.248 131.484L318.72 131.823H312.004L308.646 131.653L305.288 131.318L302.265 130.813L299.073 130.311L296.05 129.637L293.197 128.8L287.657 127.119L282.618 125.103L283.458 130.311L284.465 135.516L285.305 141.057L285.807 146.766L286.481 152.476L286.816 158.521V164.567V170.612L286.481 176.826L285.976 183.038L284.97 189.419L283.794 195.633L282.282 201.845L280.266 208.059L278.084 214.274L276.739 217.296L275.397 220.485L273.55 224.012L271.703 227.371L269.687 230.562L267.84 233.416L264.313 238.79L260.955 243.155L258.268 246.848L256.255 249.705L255.75 250.881L255.245 251.887V252.894L255.581 253.568L255.916 254.069L256.59 254.408L257.597 254.574H259.779L261.29 254.239L264.649 253.398L268.681 252.056L273.045 250.21L277.915 247.689L283.123 244.666L288.663 241.142L294.373 237.109L300.249 232.576L306.128 227.371L309.151 224.683L312.004 221.83L314.86 218.808L317.714 215.616L320.57 212.257L323.254 208.899L325.941 205.372L328.462 201.845L332.156 196.138L335.514 190.428L338.872 184.549L341.728 178.504L344.412 172.628L346.933 166.749L348.949 160.873L350.796 155.329L352.308 149.958L353.483 144.92L354.154 140.386L354.656 136.187V134.171L354.49 132.494L354.321 130.813L354.154 129.302L353.819 128.126L353.314 126.95L352.643 125.944L351.972 125.103L351.298 124.602L350.627 124.432L349.787 124.097H348.949Z" fill="white"/>
<path fill-rule="evenodd" clip-rule="evenodd" d="M258.603 351.972L257.597 352.138L256.59 352.308L255.916 352.643L255.581 353.145L255.245 353.819V354.656L255.75 355.832L256.255 357.008L258.268 359.864L260.955 363.558L264.313 367.922L267.84 373.13L269.687 376.153L271.703 379.176L273.55 382.7L275.397 386.227L276.739 389.25L278.084 392.273L280.266 398.487L282.282 404.699L283.794 411.079L284.97 417.294L285.976 423.508L286.481 429.889L286.816 436.101V442.146V448.191L286.481 454.07L285.807 459.946L285.305 465.656L284.465 471.03L283.458 476.404L282.618 481.44L287.657 479.593L293.197 477.746L296.05 477.075L299.073 476.404L302.265 475.73L305.288 475.395L308.646 475.059L312.004 474.724H315.362L318.72 474.893L322.248 475.228L325.775 475.73L329.469 476.404L332.996 477.411L336.69 478.417L339.878 479.593L345.086 481.609L347.269 482.28L348.109 482.449L348.949 482.616L349.787 482.449L350.627 482.28L351.298 481.945L351.972 481.44L352.643 480.769L353.314 479.762L353.819 478.587L354.154 477.241L354.321 475.73L354.49 474.219L354.656 472.372V470.525L354.154 466.327L353.483 461.627L352.308 456.588L350.796 451.383L348.949 445.673L346.933 439.964L344.412 434.088L341.728 428.042L338.872 422.163L335.514 416.287L332.156 410.408L328.462 404.868L325.941 401.174L323.254 397.647L320.57 394.289L317.714 391.097L314.86 387.908L312.004 384.885L309.151 382.029L306.128 379.342L300.249 374.137L294.373 369.603L288.663 365.574L283.123 361.877L277.915 359.024L273.045 356.506L268.681 354.49L264.649 353.145L261.29 352.308L259.779 352.138L258.603 351.972Z" fill="white"/>
<path fill-rule="evenodd" clip-rule="evenodd" d="M260.619 286.481L259.948 287.152L258.268 289.504L257.261 291.35L256.085 293.367L254.91 295.549L253.903 298.067L252.727 300.754L251.887 303.607L251.216 306.63L250.711 309.652L250.376 312.675L250.545 315.698L250.711 317.209L251.047 318.72L251.382 320.232L251.887 321.577L252.558 322.919L253.232 324.264L254.743 326.615L256.421 328.628L258.268 330.309L259.948 331.485L261.29 332.325L262.466 332.661H262.802L263.137 332.491L263.307 332.156V331.82L262.802 330.475L260.955 326.615L259.613 323.928L258.268 320.736L257.261 317.043L256.756 315.196L256.421 313.014L256.085 310.326L255.916 307.639L256.085 305.118L256.255 302.601L256.59 300.249L257.092 298.236L258.102 294.204L259.108 291.015L260.115 288.663L260.789 286.983L260.955 286.647V286.481H260.619Z" fill="white"/>
<path fill-rule="evenodd" clip-rule="evenodd" d="M83.2913 525.437L102.434 525.942L121.579 526.444L160.033 527.118L179.344 527.284L198.486 527.453L236.943 527.62H275.397L294.708 527.453L313.851 527.284L333.162 526.949L352.308 526.613L371.619 525.942L390.761 525.437L371.619 525.606H352.308L313.851 525.942H236.943L198.486 525.773H160.199L83.2913 525.437Z" fill="#A1B0E6"/>
<path fill-rule="evenodd" clip-rule="evenodd" d="M90.0076 56.9281L88.4962 57.0943L86.9849 57.5991L85.4736 58.1008L84.1316 58.7749L82.7865 59.6121L81.4445 60.4524L80.4349 61.6282L79.2591 62.6347L78.4218 63.9798L77.5816 65.3218L76.9106 66.6669L76.4058 68.1782L76.0703 69.6896L75.7347 71.2009V72.8784V90.5124V92.1899L76.0703 93.7012L76.4058 95.2125L76.9106 96.7238L77.5816 98.0689L78.4218 99.411L79.2591 100.756L80.4349 101.763L81.4445 102.938L82.7865 103.779L84.1316 104.616L85.4736 105.29L86.9849 105.792L88.4962 106.127L90.0076 106.466H385.387L386.898 106.127L388.41 105.792L389.921 105.29L391.266 104.616L392.608 103.779L393.953 102.938L394.96 101.763L396.136 100.756L396.976 99.411L397.813 98.0689L398.487 96.7238L398.989 95.2125L399.324 93.7012L399.66 92.1899V90.5124V72.8784V71.2009L399.324 69.6896L398.989 68.1782L398.487 66.6669L397.813 65.3218L396.976 63.9798L396.136 62.6347L394.96 61.6282L393.953 60.4524L392.608 59.6121L391.266 58.7749L389.921 58.1008L388.41 57.5991L386.898 57.0943L385.387 56.9281H90.0076Z" fill="#4C649E"/>
<path fill-rule="evenodd" clip-rule="evenodd" d="M198.486 64.8201L179.344 64.9863L160.033 65.1556L140.89 65.4911L121.579 65.9959L102.434 66.4976L83.2913 67.1686L102.434 67.0024L121.745 66.8331L160.033 66.6669L198.486 66.4976H236.943L275.397 66.6669L313.851 66.8331L390.761 67.1686L371.619 66.4976L352.308 65.9959L313.851 65.3218L294.708 65.1556L275.397 64.9863L236.943 64.8201H198.486Z" fill="#A1B0E6"/>
<path fill-rule="evenodd" clip-rule="evenodd" d="M238.79 604.025L207.388 604.195L178.168 604.53L151.805 605.201L128.8 605.872L109.824 606.882L101.932 607.383L95.3818 607.888L90.1768 608.559L86.3139 609.064L84.9688 609.4L83.9623 609.735L83.4575 610.071L83.2913 610.406L83.4575 610.745L83.9623 611.08L84.9688 611.246L86.3139 611.582L90.1768 612.256L95.3818 612.758L101.932 613.429L109.824 613.933L128.8 614.774L151.805 615.614L178.168 616.116L207.388 616.451L238.79 616.621L270.192 616.451L299.409 616.116L325.775 615.614L348.78 614.774L367.756 613.933L375.648 613.429L382.198 612.758L387.403 612.256L391.266 611.582L392.608 611.246L393.615 611.08L394.119 610.745L394.455 610.406L394.119 610.071L393.615 609.735L392.608 609.4L391.266 609.064L387.403 608.559L382.198 607.888L375.648 607.383L367.756 606.882L348.78 605.872L325.775 605.201L299.409 604.53L270.192 604.195L238.79 604.025Z" fill="#D9DCE5"/>
<path fill-rule="evenodd" clip-rule="evenodd" d="M111.166 507.132L104.785 507.471L99.0754 508.142L94.0367 508.813L89.8383 509.653L88.1607 510.155L86.6494 510.66L85.6429 511.331L84.8026 511.835L84.2978 512.506L84.1316 513.011L84.2978 513.682L84.8026 514.187L85.6429 514.858L86.6494 515.363L88.1607 515.865L89.8383 516.369L94.0367 517.21L99.0754 518.05L104.785 518.552L111.166 518.887L118.051 519.056L124.937 518.887L131.318 518.552L137.027 518.05L142.063 517.21L146.262 516.369L147.942 515.865L149.284 515.363L150.46 514.858L151.3 514.187L151.805 513.682L151.971 513.011L151.805 512.506L151.3 511.835L150.46 511.331L149.284 510.66L147.942 510.155L146.262 509.653L142.063 508.813L137.027 508.142L131.318 507.471L124.937 507.132H111.166Z" fill="#0D2054" fill-opacity="0.257"/>
<path fill-rule="evenodd" clip-rule="evenodd" d="M128.966 633.916L121.074 634.085L113.684 634.251L106.968 634.59L101.092 634.926L96.2221 635.427L92.5254 635.932L91.3527 636.268L90.3431 636.437L89.6721 636.772L89.5028 637.108L89.6721 637.443L90.3431 637.779L91.3527 638.114L92.5254 638.284L96.2221 638.955L101.092 639.29L106.968 639.795L113.684 639.961L121.074 640.131L128.966 640.297L136.858 640.131L144.415 639.961L150.965 639.795L156.841 639.29L161.71 638.955L165.407 638.284L166.749 638.114L167.589 637.779L168.26 637.443L168.43 637.108L168.26 636.772L167.589 636.437L166.749 636.268L165.407 635.932L161.71 635.427L156.841 634.926L150.965 634.59L144.415 634.251L136.858 634.085L128.966 633.916Z" fill="#D9DCE5"/>
<path fill-rule="evenodd" clip-rule="evenodd" d="M196.809 351.972L196.304 352.138L195.128 352.979L194.122 353.985L192.106 356.001L191.435 356.506L191.099 356.672H190.594L190.259 356.506L190.09 356.337L191.099 354.154L182.197 354.321L180.855 367.922L187.572 368.427L189.588 366.75L191.099 365.405L192.61 363.893L193.112 363.053L193.617 362.046L193.952 361.04L194.122 359.864L194.962 357.848L195.799 356.337L196.135 355.666L196.64 355.161L197.144 354.321L197.646 353.65L197.815 353.145V352.643L197.48 352.308L197.311 352.138L196.809 351.972Z" fill="#EDBDA3"/>
<path fill-rule="evenodd" clip-rule="evenodd" d="M186.731 342.566L186.06 343.24L185.389 344.415L184.718 345.758L183.207 348.78L182.702 350.122L181.526 359.864L183.709 362.382L186.23 351.298L186.565 350.291L186.901 348.275L187.236 346.933V345.422V344.077L187.067 342.735L186.901 342.566H186.731Z" fill="#EDBDA3"/>
<path fill-rule="evenodd" clip-rule="evenodd" d="M193.112 339.041L192.275 339.377L191.265 340.048L190.09 341.054L188.076 343.07L187.236 344.077L182.533 355.666L184.549 356.337L186.396 353.145L188.076 349.956L189.754 346.429L190.594 345.588L191.939 343.406L192.777 342.23L193.281 341.054L193.617 340.048V339.543V339.207L193.451 339.041H193.112Z" fill="#EDBDA3"/>
<path fill-rule="evenodd" clip-rule="evenodd" d="M195.464 339.207L194.288 339.712L192.777 340.888L190.93 342.23L187.741 345.086L186.23 346.429L182.367 358.519L186.901 357.848L188.076 355.33L189.252 352.474L190.428 349.116L191.435 348.109L193.451 345.588L194.457 343.911L195.297 342.23L195.969 340.719V340.048V339.377L195.799 339.207H195.464Z" fill="#EDBDA3"/>
<path fill-rule="evenodd" clip-rule="evenodd" d="M195.633 343.406L194.623 343.911L193.617 344.751L192.275 345.758L189.923 347.94L188.917 348.949L185.894 358.353L189.419 357.848L190.259 355.832L191.265 353.65L192.275 351.132L192.946 350.122L194.623 347.94L195.298 346.764L195.969 345.422L196.304 344.416V343.911L196.135 343.406H195.633Z" fill="#EDBDA3"/>
<path fill-rule="evenodd" clip-rule="evenodd" d="M187.236 344.077L186.565 344.751L186.23 345.422L185.389 346.933L184.885 348.611L184.383 350.291L185.22 348.78L185.725 347.1L186.396 345.588L187.236 344.077Z" fill="#AB6F6A"/>
<path fill-rule="evenodd" clip-rule="evenodd" d="M193.952 340.048L191.265 342.399L189.923 343.575L188.578 344.751H188.412V344.917L188.243 345.086L188.077 345.588L187.741 346.429L187.067 348.109L186.06 351.467L187.406 348.109L188.077 346.598L188.412 345.758L188.578 345.422L188.917 345.086L189.588 344.582L190.259 343.911L191.435 342.735L193.952 340.048Z" fill="#AB6F6A"/>
<path fill-rule="evenodd" clip-rule="evenodd" d="M194.623 343.911L192.106 345.086L191.435 345.422L191.099 345.588L190.93 345.758L190.09 346.933L188.917 349.451L187.907 351.972L189.252 349.62L190.594 347.269L191.265 346.093L191.601 345.758L192.275 345.422L194.623 343.911Z" fill="#AB6F6A"/>
<path fill-rule="evenodd" clip-rule="evenodd" d="M191.099 354.154L190.428 354.995L190.09 356.001L189.754 357.177V357.682V358.353L190.09 357.177L190.428 356.17L190.764 355.161L191.099 354.154Z" fill="#AB6F6A"/>
<path fill-rule="evenodd" clip-rule="evenodd" d="M141.226 329.302L142.232 333.332L143.744 337.361L145.255 341.224L147.102 345.086L149.118 348.949L150.294 350.627L151.47 352.474L152.812 354.154L154.154 355.832L155.665 357.343L157.345 358.688L156.003 357.008L154.828 355.33L152.642 351.633L150.629 348.109L148.782 344.246L144.919 336.859L141.226 329.302Z" fill="#112963"/>
<path fill-rule="evenodd" clip-rule="evenodd" d="M113.348 314.525L112.342 315.698L111.501 317.043L109.99 319.73L108.648 322.417L107.472 325.44L106.466 328.293L105.456 331.315L104.785 334.338L104.114 337.361L103.443 340.383L103.105 343.406L102.434 349.62L102.098 355.832L102.267 362.046L103.105 355.832L103.779 349.787L104.28 346.764L104.616 343.741L105.121 340.719L105.792 337.696L107.137 331.651L108.814 325.775L109.655 322.919L110.83 320.065L112.006 317.209L113.348 314.525Z" fill="#112963"/>
<path fill-rule="evenodd" clip-rule="evenodd" d="M158.352 446.68L142.737 451.885L140.721 452.559L138.705 453.061L136.523 453.396L134.507 453.565L132.494 453.735L130.311 453.901L128.295 453.735L126.279 453.565L101.932 450.712L101.092 452.223L98.9092 456.588L96.0528 462.633L94.5415 466.161L93.1995 469.685L92.5254 470.695L90.8479 473.548L89.8383 475.564L88.8318 477.746L87.9915 480.433L87.1543 483.12L86.6495 486.143L86.314 489.332V490.846V492.524L86.6495 494.204L86.985 495.882L87.4898 497.563L87.9915 499.24L88.8318 500.921L89.6721 502.432L90.8479 504.11L92.0237 505.79L93.535 507.301L95.2125 508.813L96.5576 509.989L98.2352 510.995L100.082 511.835L102.267 512.676L104.616 513.347L107.137 514.187L112.847 515.363L118.892 516.369L125.439 517.04L132.158 517.711L138.874 518.216L136.356 524.095L134.171 529.971L131.989 535.681L129.806 541.055L127.455 546.26L125.103 550.963L123.761 553.146L122.416 555.159L121.074 557.175L119.729 558.855L118.556 561.709L117.716 564.731L116.876 568.425L116.54 570.275L116.371 572.122V573.968L116.54 575.646L116.876 577.157L117.38 578.502L117.882 579.173L118.387 579.678L118.892 580.18L119.563 580.515L122.752 578.333L126.279 575.646L130.982 571.952L130.647 578.167L130.477 583.877L130.311 593.446V599.827L130.477 602.178L131.653 602.683L132.995 603.188L134.34 603.524L135.852 603.859L138.539 604.025H141.226L143.574 603.859L145.424 603.69L147.102 603.354L148.782 596.804L150.629 589.922L152.981 582.701L155.499 575.31L158.186 568.089L161.039 560.702L164.062 553.481L167.084 546.429L172.794 533.665L177.999 522.75L182.031 514.522L184.383 509.819L184.718 508.982H184.885L185.22 507.806L185.556 506.63L185.894 505.455V504.279V503.103L185.725 501.927L185.389 500.751L185.054 499.576L186.901 493.195L187.741 490.006L188.412 486.814V485.137L188.077 483.791L187.741 482.28L187.236 480.938L186.731 479.593L186.06 478.417L184.549 476.069L182.872 474.053L180.855 472.206L178.839 470.525L176.657 469.183L174.641 468.007L172.459 467.001L168.931 465.49L166.247 464.649L165.407 464.314L158.352 446.68Z" fill="#4066C2"/>
<path fill-rule="evenodd" clip-rule="evenodd" d="M120.234 312.509L118.892 312.675L117.211 313.013L115.534 313.515L113.853 314.356L112.173 315.531L110.661 317.043L109.824 318.049L109.15 319.225L108.313 320.401L107.639 321.746L107.137 323.257L106.632 324.935L106.127 326.781L105.626 328.798L105.29 330.814L104.955 333.162L104.616 337.865L104.28 342.064L104.114 349.285L104.28 354.995L104.616 359.529L105.121 362.717L105.626 364.9L106.127 366.411L107.472 366.58L111.335 367.085L117.045 367.756L120.403 367.922H127.96L131.989 367.756L136.187 367.421L140.216 366.75L144.415 365.909L148.447 364.734L150.294 364.063L152.307 363.222L153.988 362.382L155.834 361.375L154.659 359.529L151.971 354.656L150.46 351.803L149.118 348.611L147.942 345.422L147.607 343.911L147.271 342.566L145.591 331.485L144.75 326.11L124.263 313.013L123.592 312.844L121.579 312.675L120.234 312.509Z" fill="#112963"/>
<path fill-rule="evenodd" clip-rule="evenodd" d="M145.76 337.025L145.086 337.361L144.249 337.696L143.575 338.37L142.904 339.041L142.402 340.048L141.897 341.054L141.562 342.064L141.392 343.07V344.077L141.562 345.087L141.728 345.927L142.233 346.598L142.737 347.1L143.408 347.438L144.249 347.604H144.92L145.76 347.438L146.431 346.933L147.271 346.262L147.773 345.588L148.447 344.582L148.949 343.575L149.284 342.566V341.559V340.553V339.543L148.949 338.706L148.447 338.032L147.942 337.53L147.271 337.195L146.597 337.025H145.76Z" fill="#EDBDA3"/>
<path fill-rule="evenodd" clip-rule="evenodd" d="M146.095 345.758L145.255 345.927L144.415 346.429L143.913 347.269L143.744 348.109L143.913 348.949L144.415 349.787L145.255 350.291L146.095 350.461L146.936 350.291L147.773 349.787L148.278 348.949L148.447 348.109L148.278 347.269L147.773 346.429L146.936 345.927L146.095 345.758Z" fill="white"/>
<path fill-rule="evenodd" clip-rule="evenodd" d="M116.876 319.56L117.045 323.759V334.674V349.956L116.876 358.519L116.54 367.251V368.763L116.205 369.938L115.869 371.114L115.364 372.121L114.86 373.13L114.189 373.968L113.518 374.808L112.846 375.479L111.166 376.488L109.655 377.16L108.143 377.495L106.801 377.664L107.303 379.342L108.814 383.54L109.824 386.397L111.166 389.25L112.846 392.442L114.693 395.465L115.869 396.807L116.876 398.152L118.218 399.494L119.393 400.669L120.739 401.676L122.25 402.686L123.761 403.357L125.272 404.028L126.95 404.363L128.631 404.532H130.477L132.324 404.197L134.34 403.692L136.356 402.686L138.539 401.676L140.721 400.165L141.057 399.998L141.897 399.158L142.737 397.982L143.408 396.64L144.079 395.129L144.75 393.448L145.255 391.768L145.591 389.921L145.926 388.074L146.095 386.227V384.547V382.869L145.76 381.358L145.424 380.013L144.92 378.84L144.249 378.166L143.408 377.664L141.226 376.824L140.05 376.319L138.874 375.648L137.868 374.808L137.027 373.801L136.523 372.456L136.018 370.779L135.516 364.9L135.347 362.046V359.359V356.672L135.516 354.154L136.018 351.633L136.523 349.116L116.876 319.56Z" fill="#EDBDA3"/>
<path fill-rule="evenodd" clip-rule="evenodd" d="M116.876 319.56L117.045 323.423V333.667V348.275L116.876 356.337L116.706 364.9L117.716 365.909L118.723 366.916L119.729 367.756L120.905 368.427L122.081 368.932L123.256 369.267L124.602 369.434H125.944L127.624 369.098L129.136 368.763L130.477 368.261L131.823 367.421L132.995 366.58L134.005 365.574L135.011 364.398L135.852 363.053L135.516 359.359V355.666L135.852 352.308L136.187 350.627L136.523 349.116L116.876 319.56Z" fill="#AB6F6A"/>
<path fill-rule="evenodd" clip-rule="evenodd" d="M128.461 314.525L124.937 314.691L123.256 314.86L121.579 315.196L119.898 315.531L118.387 316.036L116.876 316.707L115.534 317.547L114.189 318.554L113.013 319.896L111.837 321.241L110.83 322.919L109.99 324.768L109.319 326.951L108.648 329.302L108.313 331.986L108.143 335.178V338.37L108.479 341.559L108.984 344.751L109.655 347.604L110.661 350.461L111.671 353.145L113.013 355.666L114.524 358.017L116.205 360.2L118.051 361.877L120.068 363.558L122.081 364.734L124.263 365.74L126.615 366.245L128.966 366.411L130.813 366.245L132.66 366.076L134.171 365.574L135.682 365.069L137.027 364.229L138.203 363.388L139.379 362.382L140.386 361.375L141.226 360.2L142.063 358.855L142.737 357.682L143.239 356.171L144.249 353.314L144.92 350.292L145.424 347.269L145.591 344.416V341.728V339.377L145.424 335.683L145.255 334.338L144.415 331.149L143.744 328.293L142.903 325.941L142.063 323.759L141.057 321.912L140.216 320.232L139.21 318.889L138.034 317.714L137.027 316.873L135.852 316.202L134.676 315.531L133.5 315.196L132.324 314.86L130.982 314.691L128.461 314.525Z" fill="#EDBDA3"/>
<path fill-rule="evenodd" clip-rule="evenodd" d="M141.226 376.824L138.705 378.166L136.187 379.176L133.334 379.847L130.477 380.352L127.624 380.518H122.081L119.393 380.182L114.358 379.511L110.495 378.671L107.808 377.831L106.801 377.664L89.5028 394.96L102.769 447.856L98.4045 462.467L101.593 463.978L104.616 465.32L107.808 466.496L110.83 467.503L114.022 468.174L117.045 468.848L120.068 469.35L122.921 469.685L125.944 469.854H131.484L134.171 469.685L139.545 469.014L144.415 468.174L148.949 467.167L152.981 465.991L156.505 464.649L159.528 463.474L163.896 461.457L165.407 460.786L159.697 440.133L163.055 391.602L141.226 376.824Z" fill="#FF5959"/>
<path fill-rule="evenodd" clip-rule="evenodd" d="M105.961 377.664L103.779 378L102.267 378.335L100.587 378.84L98.7399 379.677L96.8931 380.853L94.877 382.198L92.864 384.045L91.0141 386.058L89.1673 388.745L88.4963 390.257L87.6559 391.768L86.9849 393.448L86.3139 395.295L85.6429 397.311L85.1381 399.494L84.6333 401.845L84.2978 404.197L83.2913 413.936L82.451 423.004L81.9462 431.567L81.6107 439.123V445.673V450.878L81.9462 454.741L82.1155 456.923L89.1673 455.246H89.5027L90.5123 455.077L92.0237 454.741L92.864 454.236L93.7012 453.901L94.7108 453.23L95.548 452.39L96.3883 451.549L97.0593 450.373L97.7334 449.031L98.2351 447.351L98.5706 445.504L98.7399 443.491H98.9092L106.801 377.664H105.961Z" fill="#FF5959"/>
<path fill-rule="evenodd" clip-rule="evenodd" d="M141.226 376.824L157.345 409.568H170.442L169.436 398.989L167.254 394.791L164.902 390.931L162.55 387.908L160.199 385.221L157.85 383.036L155.499 381.189L153.147 379.677L150.965 378.671L148.949 377.831L147.102 377.329L145.424 376.99L143.913 376.824H141.226Z" fill="#FF5959"/>
<path fill-rule="evenodd" clip-rule="evenodd" d="M180.686 362.551L170.442 392.273L155.329 381.022L158.352 408.731L175.65 423.339L191.435 366.411L180.686 362.551Z" fill="#FF5959"/>
<path fill-rule="evenodd" clip-rule="evenodd" d="M106.466 337.194L105.456 337.361L104.45 337.696L103.609 338.37L103.105 339.207L102.603 340.217L102.434 341.224V342.399L102.603 343.575L102.938 344.917L103.443 346.093L104.28 347.1L105.121 348.109L106.127 348.78L107.137 349.285L108.143 349.62L109.319 349.787L110.326 349.62L111.166 349.116L112.006 348.445L112.677 347.774L113.013 346.764L113.348 345.588V344.582L113.182 343.24L112.847 342.064L112.172 340.888L111.501 339.712L110.495 338.872L109.655 338.201L108.479 337.53L107.472 337.361L106.466 337.194Z" fill="#EDBDA3"/>
<path fill-rule="evenodd" clip-rule="evenodd" d="M140.05 336.185L139.379 336.52L138.874 336.859L138.369 337.361L139.545 337.025L140.89 336.859H143.408L142.737 336.52L142.063 336.354L141.392 336.185H140.05Z" fill="#112963"/>
<path fill-rule="evenodd" clip-rule="evenodd" d="M122.752 336.859L122.081 337.025H121.41L120.739 337.361L120.068 337.865L119.729 338.37L120.905 337.865L122.081 337.53H124.602L124.097 337.194L123.426 337.025L122.752 336.859Z" fill="#112963"/>
<path fill-rule="evenodd" clip-rule="evenodd" d="M123.426 343.575L123.09 343.741L122.752 344.077L123.426 343.911H124.263L124.937 344.246L125.774 344.751L125.103 344.077L124.263 343.575H123.426Z" fill="#112963"/>
<path fill-rule="evenodd" clip-rule="evenodd" d="M124.768 341.224L124.263 341.393L123.927 341.559L123.761 342.064L123.592 342.566L123.761 343.07L123.927 343.575L124.263 343.911H125.103L125.439 343.575L125.774 343.07V342.566V342.064L125.439 341.559L125.103 341.393L124.768 341.224Z" fill="#112963"/>
<path fill-rule="evenodd" clip-rule="evenodd" d="M140.05 342.735L139.715 342.904L139.379 343.24L139.041 343.575L139.715 343.24L140.552 342.904H141.392L142.063 343.07L141.392 342.735H140.05Z" fill="#112963"/>
<path fill-rule="evenodd" clip-rule="evenodd" d="M139.881 340.553L139.545 340.719L139.379 340.888L139.21 341.393V341.895L139.379 342.399L139.714 342.735L140.05 342.904H140.386L140.721 342.735L141.057 342.399L141.226 342.064V341.559L141.057 341.054L140.721 340.719L140.386 340.553H139.881Z" fill="#112963"/>
<path fill-rule="evenodd" clip-rule="evenodd" d="M132.324 337.361L132.66 338.872L133.165 340.383L133.669 341.895L134.34 343.24L135.011 344.582L136.018 345.927L137.194 346.933L137.868 347.438L138.37 347.537L137.699 348.611L136.523 349.787L135.181 350.796L133.669 351.633L135.181 350.962L136.692 350.122L138.034 348.949L138.539 348.275L139.041 347.438L139.21 347.1H138.874L138.203 346.764L137.529 346.429L136.523 345.422L135.516 344.246L134.845 343.07L133.5 340.217L132.324 337.361Z" fill="#AB6F6A"/>
<path fill-rule="evenodd" clip-rule="evenodd" d="M124.263 351.803L124.937 352.979L125.774 353.819L126.784 354.49L127.96 355.161L129.302 355.496H131.822L132.995 355.33L130.647 354.995L128.295 354.49L127.119 353.985L126.113 353.483L125.103 352.643L124.263 351.803Z" fill="#AB6F6A"/>
<path fill-rule="evenodd" clip-rule="evenodd" d="M100.251 447.015L95.5481 447.185L93.3658 447.351L91.3528 447.689L89.3367 448.191L87.656 448.696L85.9785 449.367L84.8027 450.207L83.6269 451.214L82.7866 452.389L82.2818 453.901L82.1156 455.412V457.093L82.6204 459.106L83.1221 460.282L83.7931 461.122L84.8027 461.962L85.9785 462.633L87.3205 463.304L89.0011 463.809L90.6787 464.144L92.5255 464.314L96.7239 464.649H101.092L105.961 464.314L110.661 463.809L115.534 463.138L120.068 462.467L128.126 460.956L133.836 459.611L135.852 459.106L133.165 452.223L130.647 451.718L124.263 450.207L120.068 449.367L115.364 448.527L110.326 447.856L105.29 447.351L100.251 447.015Z" fill="#FF5959"/>
<path fill-rule="evenodd" clip-rule="evenodd" d="M155.329 410.578L157.515 418.134L159.697 425.691L160.199 427.538L160.368 428.378V429.384V431.231L160.199 433.247L159.192 440.97L160.199 437.276L161.039 433.413L161.375 431.4V429.384V428.378L161.208 427.368L160.704 425.355L159.528 421.659L158.186 417.799L156.841 414.102L155.329 410.578Z" fill="#802D2D"/>
<path fill-rule="evenodd" clip-rule="evenodd" d="M100.082 408.731L99.5803 416.118V423.675V431.065L99.9158 438.622L100.251 431.065L100.421 423.675V416.287L100.082 408.731Z" fill="#802D2D"/>
<path fill-rule="evenodd" clip-rule="evenodd" d="M182.367 442.651L113.013 447.185L113.182 449.201L128.126 451.885L197.646 447.351L197.48 445.338L182.367 442.651Z" fill="#8C8C8C"/>
<path fill-rule="evenodd" clip-rule="evenodd" d="M182.367 442.651L113.013 447.185L128.126 450.038L197.48 445.338L182.367 442.651Z" fill="#F0F0F0"/>
<path fill-rule="evenodd" clip-rule="evenodd" d="M215.111 404.197L148.783 409.233H148.108L147.607 409.568L147.271 409.904L146.936 410.408L126.448 451.383L128.126 451.885L197.646 447.351L217.296 407.555L217.462 407.05L217.632 406.545V406.21L217.462 405.708L217.127 405.203L216.958 404.868L216.456 404.532L215.951 404.363L215.111 404.197Z" fill="#8C8C8C"/>
<path fill-rule="evenodd" clip-rule="evenodd" d="M216.287 405.37L150.46 409.737L149.789 409.904L149.284 410.073L148.782 410.578L148.447 411.079L128.126 451.885L197.48 447.351L217.462 407.22L217.632 406.545L217.462 405.874L216.958 405.539L216.287 405.37Z" fill="#F0F0F0"/>
<path fill-rule="evenodd" clip-rule="evenodd" d="M176.488 427.033L175.315 427.202L174.305 427.368L173.13 427.704L171.954 428.209L170.947 428.713L170.107 429.384L169.436 430.055L168.931 430.896L168.596 431.567L168.429 432.238L168.596 432.912L168.931 433.583L169.436 433.918L170.276 434.254L171.117 434.589H173.13L174.305 434.254L175.315 433.918L176.488 433.414L177.497 432.912L178.338 432.238L179.009 431.567L179.51 430.896L179.849 430.055L180.015 429.384L179.849 428.713L179.51 428.209L179.009 427.704L178.168 427.368L177.328 427.202L176.488 427.033Z" fill="#8C8C8C"/>
<path fill-rule="evenodd" clip-rule="evenodd" d="M142.063 447.689L140.721 447.856L139.545 448.025L138.539 448.36L137.529 448.696L135.852 449.536L134.676 450.543L133.836 451.383L133.165 452.223L134.507 459.444L137.529 458.77L141.057 458.269L144.584 457.933H148.108L153.988 457.764H156.675L157.681 454.236L153.652 451.549L150.46 449.702L149.118 449.031L147.773 448.527L146.431 448.025L145.086 447.856L143.408 447.689H142.063Z" fill="#EDBDA3"/>
<path fill-rule="evenodd" clip-rule="evenodd" d="M157.681 454.07L154.994 454.236H152.642L150.294 454.572L151.971 457.428L165.909 458.435H166.247L166.413 458.099L166.583 457.933V457.594L166.078 456.757L165.238 455.917L164.397 455.412L163.222 454.907L161.879 454.572L160.538 454.406L157.681 454.07Z" fill="#EDBDA3"/>
<path fill-rule="evenodd" clip-rule="evenodd" d="M152.642 441.475L151.47 441.98L149.789 442.817L147.607 444.162L141.392 447.856L152.642 456.083H169.772L170.107 455.917L170.276 455.748L170.443 455.412L170.276 455.077L169.27 453.901L168.094 452.894L166.583 452.054L165.238 451.383L163.56 450.878L162.049 450.373L158.857 449.536L155.834 449.031L153.316 448.862L150.965 448.696V448.527V447.856L151.47 446.514L152.642 444.328L153.316 443.322L153.652 442.481V441.81L153.483 441.644L153.316 441.475H152.642Z" fill="#EDBDA3"/>
<path fill-rule="evenodd" clip-rule="evenodd" d="M155.665 454.741L154.154 455.077L153.316 455.246L152.642 455.412H154.154L155.834 455.581L158.857 455.748L162.049 455.917L165.407 456.083L163.726 455.581L162.215 455.246L159.026 454.741H155.665Z" fill="#AB6F6A"/>
<path fill-rule="evenodd" clip-rule="evenodd" d="M158.857 452.39L157.176 452.725L156.339 452.894L155.499 453.23L157.176 453.061L158.857 453.23L162.049 453.396L165.238 453.735L168.596 454.07L166.918 453.565L165.407 453.061L163.726 452.725L162.049 452.559L160.538 452.39H158.857Z" fill="#AB6F6A"/>
<path fill-rule="evenodd" clip-rule="evenodd" d="M150.965 448.696L149.789 449.031L148.613 449.536L147.607 450.207L146.431 450.878H147.102L147.773 450.712L148.949 450.373L150.125 449.702L150.629 449.201L150.965 448.696Z" fill="#AB6F6A"/>
<path fill-rule="evenodd" clip-rule="evenodd" d="M161.879 447.856L159.026 448.025L156.17 448.191L153.818 448.696L151.636 449.031L155.499 450.878H164.397L166.413 450.543L167.084 450.373L167.589 450.207L167.925 449.872V449.536L167.254 448.862L166.583 448.527L165.573 448.191L164.397 448.025L161.879 447.856Z" fill="#EDBDA3"/>
<path fill-rule="evenodd" clip-rule="evenodd" d="M97.5641 446.68L96.7238 446.849L96.0528 447.185L95.3818 447.52L94.0367 448.527L93.535 449.201L93.1995 449.872L94.5415 449.031L95.8866 448.36L97.0593 447.52L97.7334 447.185L98.0689 447.015L98.4044 447.185L98.2351 447.015L98.0689 446.849L97.5641 446.68Z" fill="#802D2D"/>
<path fill-rule="evenodd" clip-rule="evenodd" d="M130.477 602.179L130.311 621.826L135.347 625.519L140.552 628.88L143.574 630.727L146.597 632.574L149.62 634.252L152.476 635.597L155.329 636.603L157.85 637.274L158.857 637.443H159.863L160.704 637.274L161.544 637.108L162.049 636.603L162.55 635.932L162.886 635.092L163.055 634.085L162.72 633.414L162.215 632.405L161.375 631.398L160.199 630.222L157.345 627.369L153.987 624.513L147.773 619.643L145.086 617.461L147.102 603.354L130.477 602.179Z" fill="#EDBDA3"/>
<path fill-rule="evenodd" clip-rule="evenodd" d="M154.154 624.848L156.17 626.359L155.834 626.024L154.154 624.848ZM130.311 621.826L129.637 622.835L129.302 623.842L129.135 625.017L128.966 626.024V627.2L129.135 628.206L129.637 630.222L130.142 632.069L130.813 633.414L131.484 634.756H132.324L133.5 634.926L135.181 635.261L137.363 636.101L140.216 637.613L143.744 639.626L147.942 642.313L148.782 642.818L149.789 643.319L151.971 644.16L154.492 644.664L157.176 644.831L160.033 645L162.886 644.831L165.742 644.495L168.26 643.993L170.781 643.489L172.794 642.818L174.475 641.977L174.976 641.473L175.481 641.137L175.817 640.635L175.986 640.131V639.626L175.817 639.124L175.481 638.619L174.81 638.284L173.97 637.779L172.963 637.274L170.276 635.932L167.254 634.085L164.062 632.069L161.039 629.887L156.17 626.359L158.857 629.047L160.368 630.558L161.208 632.069L161.375 632.574V632.909L161.039 633.245L160.537 633.414L159.026 633.245L157.176 632.909L154.994 632.405L152.812 631.734L147.773 629.887L142.737 627.705L137.868 625.519L134.005 623.672L130.311 621.826Z" fill="#112963"/>
<path fill-rule="evenodd" clip-rule="evenodd" d="M109.99 412.926L112.677 415.613L115.364 417.965L118.218 420.316L121.24 422.333L124.432 424.179L125.944 425.02L127.79 425.691L129.471 426.192L131.318 426.362H133.165L134.171 426.026L135.011 425.691L134.005 426.026H131.318L129.637 425.521L127.96 425.02L126.279 424.179L124.768 423.508L121.579 421.658L118.722 419.645L115.7 417.46L109.99 412.926Z" fill="#802D2D"/>
<path fill-rule="evenodd" clip-rule="evenodd" d="M148.278 392.273L146.936 397.813L145.424 403.357L144.584 406.21L143.575 408.897L142.903 410.073L142.232 411.249L141.728 411.753L141.226 412.255L140.721 412.591L139.881 412.76H140.721L141.392 412.424L142.063 412.089L142.568 411.584L143.408 410.408L144.249 409.066L145.424 406.379L146.262 403.692L146.936 400.836L147.607 397.982L147.942 395.129L148.278 392.273Z" fill="#802D2D"/>
<path fill-rule="evenodd" clip-rule="evenodd" d="M109.319 332.661L108.313 332.996L107.808 333.332L107.472 333.667L107.303 334.172L107.137 334.843V336.185L107.638 337.696L108.143 339.041L108.814 340.553L110.159 342.735L110.83 343.741L110.661 342.904L110.495 342.23L110.661 340.383L111 338.706L111.671 337.025L112.846 334.172L113.348 332.996L112.511 332.827L111.501 332.661H109.319Z" fill="#112963"/>
<path fill-rule="evenodd" clip-rule="evenodd" d="M129.637 309.486L127.119 309.652L124.601 310.157L121.745 310.662L118.722 311.502H116.54L115.534 311.668L114.358 312.004L113.013 312.675L111.837 313.515L110.495 314.691L109.15 316.202L107.977 318.218L106.967 320.736L105.961 323.759L105.29 327.286L104.785 331.651L104.616 336.52L105.121 336.69L106.296 337.025L107.137 337.194L107.977 337.361L108.984 337.194L110.159 337.025L111.335 336.52L112.511 335.849L113.853 334.843L115.029 333.498L116.371 331.82L117.547 329.638L118.722 326.951L119.729 323.928L120.234 324.599L121.579 326.28L122.416 327.452L123.761 328.628L125.103 329.973L126.784 331.149L128.631 332.325L130.647 333.332L132.995 334.338L135.516 334.843L138.203 335.178H142.737L144.249 334.843L145.926 334.507L147.607 334.003L147.773 332.661V330.98V328.964L147.607 326.615L147.271 324.094L146.597 321.577L145.591 318.889L145.086 317.547L144.249 316.372L143.408 315.196L142.568 314.02L141.392 313.013L140.216 312.173L138.874 311.333L137.363 310.662L135.682 310.157L133.836 309.822L131.823 309.486H129.637Z" fill="#112963"/>
<path fill-rule="evenodd" clip-rule="evenodd" d="M105.29 340.719L104.616 341.054L104.114 341.728L104.616 341.393L105.29 341.224H105.961L106.466 341.559L106.801 341.895L107.303 342.566L107.82 343.341L107.137 343.911L106.801 344.582L106.632 345.253V345.588L106.801 345.927L107.137 346.429L107.808 346.764L108.313 346.933L107.808 346.598L107.472 346.262L107.303 345.758V345.253L107.472 344.917L107.808 344.416L108.648 343.741L108.984 343.575L108.814 343.24L107.977 341.895L107.472 341.393L106.801 340.888L105.961 340.719H105.29Z" fill="#AB6F6A"/>
<path fill-rule="evenodd" clip-rule="evenodd" d="M145.424 339.543L145.591 340.383V341.224V342.904L145.424 346.429L145.926 344.582V342.904V341.224L145.76 340.383L145.424 339.543Z" fill="#AB6F6A"/>
<path fill-rule="evenodd" clip-rule="evenodd" d="M119.729 558.855L117.38 561.542L114.86 564.23L112.342 566.747L109.824 569.099L110.326 570.275L111 571.786L112.006 573.464L113.348 575.31L115.029 577.327L116.035 578.167L117.045 579.004L118.218 579.844L119.563 580.515L120.569 579.844L123.761 577.831L125.943 576.32L128.461 574.47L131.318 572.122L134.676 569.434L131.653 568.763L129.135 567.588L126.784 566.412L124.937 565.067L123.256 563.555L121.745 561.878L120.569 560.367L119.729 558.855Z" fill="#EDBDA3"/>
<path fill-rule="evenodd" clip-rule="evenodd" d="M109.824 569.099L108.814 575.144L107.977 581.189L107.638 584.548L107.472 587.906L107.303 591.433L107.472 594.622L107.638 597.478L108.143 599.827L108.648 601.003L108.984 601.843L109.488 602.514L110.159 603.019L110.83 603.354L111.671 603.524L112.511 603.354L113.518 603.019L114.022 602.514L114.693 601.677L115.195 600.332L115.869 598.82L117.045 594.957L118.051 590.759L119.898 583.036L120.569 579.678L109.824 569.099Z" fill="#EDBDA3"/>
<path fill-rule="evenodd" clip-rule="evenodd" d="M108.648 568.93L107.472 569.099L106.466 569.265L105.456 569.601L104.45 569.936L103.609 570.61L102.098 571.617L100.922 572.959L99.9158 573.968L99.2448 574.975L99.7465 577.493L100.251 580.349L100.587 583.707L100.922 587.57V591.599L100.756 593.615L100.421 595.462L99.9158 597.309L99.411 598.99L99.0755 599.996L98.9093 601.003V602.012L99.0755 603.019L99.411 605.201L100.251 607.217L101.427 609.4L102.769 611.416L104.45 613.262L105.961 614.94L107.639 616.285L109.319 617.461L111 617.963L111.671 618.132L112.342 618.301L113.013 618.132L113.518 617.963L114.022 617.627L114.358 617.125L114.693 616.451L114.86 615.614L115.029 614.604V613.262V610.24L115.364 606.882L115.869 603.188L116.371 599.491L117.547 593.615L118.052 591.095L117.547 593.111L116.205 597.143L115.364 599.156L114.693 600.501L114.189 601.003L113.853 601.172L113.348 601.003L113.013 600.501L112.511 599.156L112.006 597.309L111.502 595.127L111.166 592.944L110.495 587.736L110.159 582.365L109.99 577.327L109.824 572.959V569.099L108.648 568.93Z" fill="#112963"/>
<path fill-rule="evenodd" clip-rule="evenodd" d="M132.324 470.525L137.529 473.382L142.568 476.235L147.607 479.091L150.125 480.603L152.642 482.28L151.636 481.274L150.46 480.098L148.278 478.251L145.76 476.57L143.239 475.059L140.552 473.717L137.868 472.372L135.181 471.366L132.324 470.525Z" fill="#2B4482"/>
<path fill-rule="evenodd" clip-rule="evenodd" d="M155.329 473.212L150.795 484.463L146.766 495.882L142.737 507.301L138.874 518.721L141.392 513.177L143.574 507.637L145.926 501.927L147.942 496.387L149.958 490.677L151.805 484.798L153.652 479.091L155.329 473.212Z" fill="#2B4482"/>
<path fill-rule="evenodd" clip-rule="evenodd" d="M184.884 502.263L182.367 506.966L179.68 511.5L174.305 520.568L168.596 529.466L162.72 538.199L159.528 542.397L158.016 544.579L156.339 546.596L154.658 548.612L152.981 550.625L149.62 554.657L146.095 558.52L144.248 560.533L142.402 562.38L140.552 564.23L138.539 565.907L134.676 569.434L138.705 566.243L142.737 562.718L146.597 559.191L150.46 555.328L153.987 551.465L157.345 547.436L160.537 543.237L163.726 538.873L166.749 534.674L169.771 530.14L172.458 525.773L175.146 521.073L177.833 516.539L180.351 511.835L182.533 507.132L184.884 502.263Z" fill="#2B4482"/>
<path fill-rule="evenodd" clip-rule="evenodd" d="M128.631 343.07V343.911L128.295 344.751L127.96 345.422L127.286 346.093L126.784 346.598L125.944 346.933L125.103 347.269H124.263H123.426L122.585 346.933L121.745 346.598L121.074 346.093L120.569 345.422L120.234 344.751L119.898 343.911L119.729 343.07L119.898 342.399L120.234 341.559L120.569 340.888L121.074 340.217L121.745 339.712L122.585 339.377L123.426 339.041H124.263H125.103L125.944 339.377L126.784 339.712L127.286 340.217L127.96 340.888L128.295 341.559L128.631 342.399V343.07Z" stroke="white" stroke-width="0.430446" stroke-miterlimit="10" stroke-linecap="round" stroke-linejoin="round"/>
<path fill-rule="evenodd" clip-rule="evenodd" d="M144.079 342.23V342.904L143.744 343.575L143.408 344.246L143.073 344.751L142.402 345.253L141.897 345.588L141.226 345.758L140.386 345.927L139.714 345.758L139.04 345.588L138.369 345.253L137.868 344.751L137.363 344.246L137.027 343.575L136.858 342.904L136.692 342.23L136.858 341.559L137.027 340.888L137.363 340.217L137.868 339.712L138.369 339.208L139.04 338.872L139.714 338.706L140.386 338.536L141.226 338.706L141.897 338.872L142.402 339.208L143.073 339.712L143.408 340.217L143.744 340.888L144.079 341.559V342.23Z" stroke="white" stroke-width="0.430446" stroke-miterlimit="10" stroke-linecap="round" stroke-linejoin="round"/>
<path d="M128.631 343.07L129.302 342.566L129.973 342.064L130.982 341.728L132.158 341.393H133.5H134.34L135.181 341.728L135.852 342.064L136.692 342.566" stroke="white" stroke-width="0.430446" stroke-miterlimit="10" stroke-linecap="round" stroke-linejoin="round"/>
<path d="M110.83 339.543L119.729 343.07" stroke="white" stroke-width="0.430446" stroke-miterlimit="10" stroke-linecap="round" stroke-linejoin="round"/>
<path d="M145.424 336.019L143.913 341.393" stroke="white" stroke-width="0.430446" stroke-miterlimit="10" stroke-linecap="round" stroke-linejoin="round"/>
<path fill-rule="evenodd" clip-rule="evenodd" d="M109.488 348.275L108.479 348.445L107.808 348.949L107.303 349.62L107.137 350.627L107.303 351.467L107.808 352.138L108.479 352.643L109.488 352.809L110.326 352.643L111.166 352.138L111.501 351.467L111.837 350.627L111.501 349.62L111.166 348.949L110.326 348.445L109.488 348.275Z" fill="white"/>
<path fill-rule="evenodd" clip-rule="evenodd" d="M130.982 307.134L129.471 307.304L128.126 307.639L126.614 307.975L123.927 308.815L121.24 310.157L118.722 311.502L121.41 310.493L124.097 309.652L126.95 308.981L129.637 308.646H132.324L133.669 308.815L135.011 308.981L136.356 309.486L137.529 309.991L138.705 310.662L139.715 311.502L140.552 312.339L141.392 313.349L142.232 314.525L142.903 315.698L143.408 316.873L144.079 318.218L145.086 320.906L145.926 323.423L146.431 326.28L146.597 327.622V328.964L146.431 330.309L146.095 331.651L146.431 331.149L146.766 330.475L147.102 328.964L147.271 327.622L147.437 326.11L147.271 324.599L147.102 323.257L146.431 320.401L145.591 317.547L144.415 314.86L143.744 313.684L142.903 312.339L141.897 311.164L140.89 310.157L139.545 309.151L138.203 308.48L136.858 307.805L135.347 307.47L134.005 307.134H130.982Z" fill="#112963"/>
<path fill-rule="evenodd" clip-rule="evenodd" d="M115.029 309.317L114.358 309.486L114.86 309.822L115.534 310.326L116.706 310.828L117.882 311.333L119.058 311.838L118.892 311.164L118.387 310.493L117.882 309.991L117.211 309.652L116.54 309.486L115.869 309.317H115.029Z" fill="#112963"/>
<path fill-rule="evenodd" clip-rule="evenodd" d="M114.524 310.828L113.518 310.997L112.677 311.164L112.006 311.668L112.847 311.838L113.684 312.004L115.195 312.173L116.876 312.339L118.556 312.509L118.218 312.173L117.882 311.838L117.045 311.333L116.205 310.997L115.364 310.828H114.524Z" fill="#112963"/>
<path fill-rule="evenodd" clip-rule="evenodd" d="M119.729 320.906V321.912L119.898 323.088L120.403 325.27L121.074 327.286L122.25 329.302L122.921 330.14L123.592 331.149L125.273 332.661L126.113 333.332L127.119 333.836L128.295 334.172L129.302 334.507L127.455 333.162L125.944 331.82L125.273 330.98L124.602 330.309L123.927 329.469L123.426 328.628L122.25 326.781L121.41 324.768L119.729 320.906Z" fill="#112963"/>
<path fill-rule="evenodd" clip-rule="evenodd" d="M170.442 392.273L169.436 392.944L168.765 393.784L168.094 394.79L167.758 395.966L167.589 397.142L167.758 398.152L168.094 399.324L168.596 400.334L168.429 399.158V398.152V397.142L168.596 396.136L168.931 395.129L169.27 394.119L170.442 392.273Z" fill="#802D2D"/>
<path fill-rule="evenodd" clip-rule="evenodd" d="M193.112 12.0905L193.786 12.2598L194.288 12.426L194.793 12.7615L195.128 13.2663L195.464 13.7711L195.633 14.2728L195.799 14.9438V15.4486V15.9534L195.633 16.4551L195.298 16.9599L194.962 17.4647L194.457 17.8002L193.952 17.9695H192.777L192.275 17.8002L191.77 17.6309L191.265 17.2954L190.93 16.7937L190.594 16.2889L190.259 15.7841L190.09 15.1131V14.6083L190.259 14.1066L190.428 13.6018L190.764 13.097L191.099 12.5953L191.601 12.2598L192.106 12.0905H193.112ZM181.191 18.976L181.696 19.1422L182.198 19.3115L182.702 19.647L183.207 20.1518L183.543 20.6535L183.709 21.3276L183.878 21.8293V22.3341L183.709 23.0051L183.543 23.5099L183.207 24.0147L182.872 24.3502L182.367 24.6857L181.862 24.852L181.36 25.0212H180.855L180.184 24.852L179.68 24.5165L179.175 24.1809L178.839 23.8454L178.504 23.3406L178.338 22.6696L178.168 22.1648V21.4938V20.9921L178.338 20.4873L178.673 19.9825L179.009 19.647L179.51 19.3115L180.015 19.1422L180.686 18.976H181.191ZM168.931 25.526L169.436 25.6923L169.941 25.8615L170.443 26.1971L170.947 26.6988L171.283 27.2036L171.452 27.7084L171.618 28.3794V28.8842L171.452 29.3859L171.283 30.06L170.947 30.3955L170.612 30.8972L170.107 31.2327L169.605 31.402H167.925L167.42 31.0665L166.918 30.731L166.583 30.3955L166.247 29.7214L166.078 29.2197L165.909 28.7149V28.0439V27.5391L166.078 27.0374L166.413 26.5326L166.749 26.0278L167.254 25.8615L167.759 25.526H168.931ZM156.505 31.5713L157.01 31.7375L157.515 31.9068L158.017 32.2423L158.352 32.744L158.688 33.2488L159.026 33.7536V34.4246V34.9294V35.4311L158.857 36.1052L158.521 36.4407L158.186 36.9424L157.681 37.2779L157.176 37.4472H156.004L155.499 37.2779L154.994 37.1117L154.492 36.7762L154.154 36.2714L153.818 35.7666L153.483 35.2649L153.316 34.7601V34.0891L153.483 33.5843L153.652 33.0826L153.987 32.5778L154.323 32.073L154.828 31.9068L155.329 31.5713H156.505ZM143.913 37.6165L144.415 37.7827L144.92 37.952L145.424 38.2875L145.926 38.7892L146.262 39.294L146.431 39.7988L146.597 40.4699V40.9746L146.431 41.4764L146.262 41.9812L145.926 42.486L145.591 42.9877L145.086 43.3232L144.584 43.4925H143.574L142.903 43.3232L142.402 43.157L142.063 42.8215L141.561 42.3167L141.226 41.8119L141.057 41.3102L140.89 40.6391V40.1343V39.6296L141.226 39.1278L141.392 38.623L141.897 38.1182L142.232 37.7827L142.903 37.6165H143.913ZM200.672 1.8468L194.793 6.04523L188.917 9.90815L182.872 13.6018L176.826 17.1292L170.947 20.318L165.071 23.3406L159.528 26.1971L154.323 28.7149L144.92 33.0826L137.363 36.2714L130.813 38.9585L132.829 44.499L135.347 49.8732L137.868 55.0782L140.721 59.7814L143.744 64.3153L146.597 68.5137L149.62 72.3767L152.476 75.901L155.329 79.0929L157.85 81.78L162.384 86.1447L165.407 88.8318L166.413 89.8414L169.27 89.5028L172.292 88.8318L175.146 88.1608L178.338 87.3205L181.36 86.3139L184.549 85.1381L190.764 82.451L197.144 79.4284L203.356 76.0703L209.401 72.5429L215.111 69.0185L220.654 65.3218L225.524 61.9637L233.921 55.9185L239.461 51.72L241.477 50.0425L239.966 49.707L238.455 49.2022L236.943 48.3619L235.432 47.3554L233.751 46.1796L232.071 44.8345L228.713 41.6457L225.354 37.952L221.83 33.9198L218.638 29.5552L215.446 25.1875L212.424 20.8228L209.57 16.6244L204.867 9.06784L201.678 3.86291L200.672 1.8468Z" fill="#D9D9D9"/>
<path fill-rule="evenodd" clip-rule="evenodd" d="M148.278 47.5216L149.118 50.378L150.294 53.0652L152.811 58.2701L155.499 63.3088L157.176 65.6574L158.687 68.1783L160.537 70.5299L162.215 72.7122L164.231 74.8945L166.247 76.9106L168.429 78.9236L170.781 80.6042L173.299 82.1156L175.817 83.4576L173.299 81.9463L170.947 80.2687L168.765 78.4219L166.749 76.4058L164.736 74.3897L162.886 72.2074L161.208 70.0251L159.528 67.6735L156.339 62.804L153.316 57.9346L150.629 52.7297L148.278 47.5216Z" fill="#4066C2"/>
<path fill-rule="evenodd" clip-rule="evenodd" d="M163.391 39.6296L164.397 42.3167L165.407 45.0038L167.925 50.2087L170.781 55.2475L172.293 57.7653L173.804 60.1169L175.651 62.4685L177.328 64.6508L179.344 66.8331L181.36 69.0185L183.543 70.8654L185.894 72.5429L188.412 74.2235L190.93 75.3993L188.412 73.888L186.061 72.2074L183.878 70.3606L181.862 68.5137L179.849 66.3314L177.999 64.146L176.322 61.9637L174.641 59.6121L171.452 54.912L168.43 49.8732L165.742 44.8345L163.391 39.6296Z" fill="#4066C2"/>
<path fill-rule="evenodd" clip-rule="evenodd" d="M180.015 30.2262L181.022 32.9133L182.031 35.6004L184.549 40.8054L187.405 45.8441L188.917 48.3619L190.428 50.7135L192.275 53.0651L193.952 55.4167L195.969 57.5991L197.985 59.6121L200.167 61.462L202.519 63.3088L205.036 64.8201L207.554 65.9959L205.036 64.6508L202.685 62.9733L200.502 61.1234L198.486 59.1104L196.473 56.928L194.623 54.7426L192.946 52.5603L191.265 50.2087L188.076 45.5086L185.054 40.4698L182.367 35.4311L180.015 30.2262Z" fill="#4066C2"/>
<path fill-rule="evenodd" clip-rule="evenodd" d="M196.473 20.3181L197.48 23.0052L198.486 25.6923L201.007 30.8972L203.861 36.1052L205.372 38.4538L207.053 40.9747L208.73 43.157L210.577 45.5086L212.424 47.6909L214.44 49.707L216.622 51.5538L218.974 53.4007L221.492 54.912L224.012 56.254L221.661 54.7427L219.309 53.0652L217.127 51.2183L214.945 49.2022L213.098 47.1861L211.251 45.0038L209.401 42.6522L207.724 40.4699L204.532 35.6004L201.678 30.731L198.991 25.5261L196.473 20.3181Z" fill="#4066C2"/>
<path fill-rule="evenodd" clip-rule="evenodd" d="M211.753 26.5326L208.059 29.0504L204.196 31.5713L200.502 33.9198L196.64 36.2714L188.917 40.9746L181.191 45.5086L173.299 49.8732L165.407 54.2409L157.515 58.6056L149.62 62.9733L157.85 58.9411L165.742 54.9119L173.804 50.5442L181.526 46.1796L189.418 41.6457L193.281 39.294L196.975 36.9424L200.838 34.4246L204.532 31.9068L208.228 29.2197L211.753 26.5326Z" fill="#4066C2"/>
<path fill-rule="evenodd" clip-rule="evenodd" d="M221.156 38.6231L217.967 41.9812L216.287 43.4925L214.609 45.0038L212.928 46.6844L211.251 48.1957L207.724 51.049L204.03 53.7362L200.333 56.5895L196.64 59.1104L192.777 61.6282L188.917 63.9798L184.885 66.3314L176.826 70.6961L172.794 72.7122L168.596 74.7252L164.567 76.7413L160.368 78.5881L164.567 76.9106L168.765 75.23L172.963 73.2139L177.162 71.3671L181.191 69.1848L185.389 67.0024L189.252 64.6508L193.281 62.2992L197.144 59.7814L200.838 57.0943L202.685 55.7523L204.532 54.4072L206.378 53.0651L208.059 51.5538L211.586 48.5312L214.945 45.3393L218.133 42.1505L221.156 38.6231Z" fill="#4066C2"/>
<path fill-rule="evenodd" clip-rule="evenodd" d="M169.605 59.7814L169.101 60.6217L168.765 61.6282L168.26 63.6443L168.094 65.6573V67.0024H167.759L166.749 66.8331H164.397L166.583 67.6734L167.589 68.0089L168.596 68.3444L169.27 68.5137V67.6734V65.6573L169.436 63.8105V61.7975L169.605 59.7814Z" fill="#FF5959"/>
<path fill-rule="evenodd" clip-rule="evenodd" d="M212.593 52.2248L212.088 53.0651L211.753 54.0717L211.251 55.9185L211.082 58.1008V59.3258L210.746 59.2766H207.554L209.57 59.9507L210.577 60.2862L211.586 60.6217L212.424 60.7879V59.9507V58.1008V56.0878V54.2409L212.593 52.2248V52.2248Z" fill="#FF5959"/>
<path fill-rule="evenodd" clip-rule="evenodd" d="M171.452 40.6392L170.276 40.9747L169.1 41.3102L173.634 42.1505L175.986 42.486L178.338 42.8215L177.328 41.9812L176.322 41.4764L175.146 40.9747L173.97 40.8054L172.628 40.6392H171.452Z" fill="#FF5959"/>
<path fill-rule="evenodd" clip-rule="evenodd" d="M175.481 37.6165L174.641 38.4538L173.97 39.2941L173.465 40.3006L173.13 41.3102L172.794 42.486V43.6618V44.8345L173.13 45.8441L173.804 43.828L174.305 41.8119L174.976 39.7988L175.481 37.6165Z" fill="#FF5959"/>
</svg>
