<svg width="300" height="224" viewBox="0 0 300 224" fill="none" xmlns="http://www.w3.org/2000/svg">
<path fill-rule="evenodd" clip-rule="evenodd" d="M84.8266 13.1847L82.6071 13.5922L80.3996 14.0813L78.1956 14.5698L76.0777 15.1255L73.9753 15.7621L71.8845 16.4768L69.7908 17.1955L67.7115 17.9883L65.7107 18.773L63.7215 19.6358L61.7478 20.5795L59.8487 21.5123L57.8831 22.5347L55.999 23.5451L54.2045 24.622L52.3439 25.792L50.5615 26.9504L48.8692 28.1788L47.0983 29.4153L45.4209 30.7213L43.7522 32.1093L42.1644 33.4819L40.5766 34.8544L39.0824 36.2965L37.5183 37.8286L36.0327 39.3526L34.6281 40.8612L33.2355 42.4514L31.843 44.0414L30.5401 45.6981L29.2522 47.4324L28.0278 49.0809L26.83 50.8851L25.7016 52.5958L24.5819 54.3885L23.4742 56.2627L22.514 58.0319L21.4994 59.9721L20.5513 61.8228L19.6962 63.7395L18.8493 65.7348L17.9942 67.6515L17.2293 69.6381L16.5574 71.6909L15.8701 73.6626L15.2878 75.7819L14.694 77.8231L14.1938 79.9338L13.7596 81.9514L13.3455 84.1291L13.0044 86.2128L12.6719 88.3785L12.4209 90.5322L12.1693 92.6824L12.0866 94.8945L12.0067 97.1027L11.9268 99.3109L11.9255 101.511L12.0052 103.696L12.175 105.95L12.3444 108.201L12.5924 110.444L12.8437 112.687L13.2513 114.907L13.6617 117.122L14.1508 119.33L14.6398 121.537L15.1949 123.651L15.8436 125.835L16.5583 127.926L17.2615 129.939L17.9796 132.029L18.8424 134.019L19.7052 136.008L20.6495 137.985L21.5904 139.963L22.6041 141.846L23.6145 143.73L24.6915 145.525L25.8619 147.389L27.0203 149.171L28.2603 150.942L29.4848 152.631L30.7912 154.312L32.1754 155.978L33.5513 157.565L34.9239 159.153L36.378 160.728L37.8985 162.214L39.3406 163.709L40.9307 165.101L42.5208 166.494L44.108 167.89L45.7642 169.19L47.4243 170.492L49.1469 171.702L50.8731 172.911L52.6657 174.031L54.4585 175.151L56.2507 176.267L58.1134 177.297L60.0421 178.233L61.8888 179.178L63.8175 180.115L65.7228 180.892L67.7214 181.738L69.7042 182.5L71.7575 183.176L73.732 183.859L75.7732 184.453L77.8925 185.035L79.9222 185.551L82.0179 185.974L84.1952 186.384L86.2943 186.806L88.4445 187.058L90.5987 187.312L92.7524 187.563L94.9606 187.643L97.1842 187.804L99.3809 187.806L101.577 187.804L103.766 187.727L106.017 187.558L108.271 187.388L110.514 187.137L112.757 186.889L114.973 186.479L117.192 186.071L119.4 185.582L121.607 185.093L123.721 184.534L125.824 183.901L127.926 183.264L130.008 182.468L132.099 181.753L134.089 180.89L136.077 180.024L138.066 179.161L139.951 178.151L141.916 177.128L143.8 176.118L145.594 175.038L147.455 173.868L149.237 172.709L150.93 171.484L152.7 170.244L154.378 168.942L156.047 167.554L157.646 166.259L159.222 164.805L160.717 163.367L162.292 161.913L163.778 160.389L165.171 158.802L166.564 157.212L167.956 155.622L169.259 153.965L170.562 152.308L171.771 150.582L172.981 148.86L174.1 147.063L175.217 145.271L176.337 143.479L177.285 141.631L178.311 139.769L179.248 137.84L180.103 135.924L180.961 134.007L181.805 132.012L182.57 130.025L183.257 128.053L183.929 126.001L184.523 123.959L185.105 121.837L185.62 119.807L186.043 117.711L186.466 115.616L186.795 113.45L187.127 111.285L187.378 109.131L187.629 106.977L187.713 104.769L187.804 102.639L187.884 100.43L187.874 98.1522L187.794 95.9676L187.624 93.713L187.454 91.4584L187.207 89.2187L186.956 86.9761L186.548 84.7567L186.137 82.5377L185.648 80.3336L185.159 78.1262L184.604 76.0117L183.967 73.9059L183.252 71.8151L182.538 69.7242L181.819 67.6305L180.957 65.6447L180.094 63.6555L179.15 61.6783L178.221 59.7822L177.198 57.8166L176.2 56.0105L175.107 54.135L173.949 52.3526L172.779 50.492L171.554 48.8026L170.314 47.0322L169.008 45.3514L167.635 43.7637L166.248 42.0984L164.875 40.5106L163.433 39.013L161.901 37.4488L160.47 36.0327L158.868 34.5587L157.281 33.1656L155.703 31.8546L154.035 30.4736L152.39 29.2488L150.652 27.9613L148.926 26.7519L147.133 25.6322L145.341 24.5124L143.56 23.4742L141.697 22.4446L139.757 21.4299L137.91 20.4813L135.993 19.6263L134.076 18.7712L132.078 17.9248L130.095 17.1593L128.042 16.4875L126.067 15.8006L124.025 15.2068L121.906 14.6246L119.877 14.1123L117.781 13.6896L115.604 13.279L113.52 12.9344L111.354 12.6019L109.2 12.3509L107.058 12.178L104.839 12.02L102.627 11.9372L100.418 11.8573L98.2216 11.8555L96.037 11.9352L93.7824 12.1051L91.5278 12.2749L89.2852 12.5263L84.8266 13.1847Z" fill="#FF5959"/>
<path fill-rule="evenodd" clip-rule="evenodd" d="M87.1569 26.7581L85.3347 27.1069L81.6397 27.9788L78.0464 28.9986L74.4761 30.1747L71.0895 31.4902L67.738 33.0434L64.4762 34.6632L61.4129 36.5L58.3578 38.4154L55.4077 40.4784L52.5593 42.6894L49.8941 45.0365L47.3339 47.5312L44.8634 50.0924L42.5761 52.7897L40.3904 55.635L38.2983 58.5498L36.3772 61.5191L34.6394 64.6244L32.9912 67.7964L31.5267 71.1077L30.2212 74.3921L29.099 77.8125L28.0669 81.3029L27.2759 84.7577L26.586 88.3572L26.1492 92.0025L25.8808 95.7063L25.7714 99.3831L25.8371 103.117L26.0705 106.907L26.2597 108.752L26.5421 110.664L26.8244 112.576L27.1882 114.476L28.0485 118.093L29.065 121.687L30.2444 125.256L31.5599 128.643L33.0316 132.007L34.7325 135.253L36.4998 138.41L38.4852 141.375L40.5481 144.325L42.7592 147.173L45.1057 149.835L47.6009 152.399L50.1621 154.869L52.8594 157.156L55.7042 159.339L58.619 161.431L61.5888 163.355L64.6942 165.093L67.8661 166.741L71.0959 168.218L74.4619 169.511L77.8823 170.633L81.3721 171.662L84.8241 172.457L88.4269 173.147L92.0723 173.583L95.6945 173.864L99.4523 173.958L103.187 173.895L106.976 173.662L108.822 173.469L112.645 172.905L114.464 172.556L118.159 171.684L121.752 170.665L125.323 169.489L128.709 168.173L132.073 166.701L135.323 165L138.401 163.241L141.441 161.248L144.391 159.185L147.24 156.974L149.905 154.627L152.465 152.132L154.935 149.571L157.222 146.87L159.408 144.025L161.501 141.113L163.422 138.144L165.163 135.038L166.807 131.863L168.284 128.637L169.578 125.271L170.7 121.851L171.744 118.438L172.523 114.906L173.213 111.306L173.653 107.66L173.93 104.038L174.027 100.28L173.965 96.5454L173.74 92.8347L173.539 90.9109L173.257 88.999L172.974 87.0872L172.622 85.2655L171.754 81.57L170.734 77.9767L169.566 74.4884L168.242 71.0198L166.767 67.6568L165.066 64.4103L163.311 61.3316L161.314 58.2885L159.251 55.3385L157.052 52.5716L154.693 49.8248L152.201 47.2642L149.637 44.7942L146.939 42.5068L144.094 40.3212L141.179 38.229L138.21 36.308L135.105 34.5702L131.933 32.922L128.703 31.4454L125.337 30.152L121.917 29.0298L118.442 28.0786L114.975 27.2061L111.384 26.5983L107.727 26.0801L104.104 25.7995L100.347 25.7056L96.6118 25.7678L92.8224 26.0012L90.9806 26.1934L87.1569 26.7581Z" fill="#F79256"/>
<path fill-rule="evenodd" clip-rule="evenodd" d="M90.3623 35.237L87.0256 35.8095L83.7974 36.5291L80.5898 37.4122L77.4868 38.4395L74.4855 39.6148L71.5892 40.9377L68.7165 42.4202L65.9334 43.9693L63.2641 45.7479L60.6763 47.5145L58.205 49.5068L55.8233 51.5656L53.5439 53.776L51.439 56.0403L49.3422 58.3832L47.4292 60.8656L45.6086 63.4107L43.9716 66.0952L42.4243 68.8462L40.9552 71.5857L39.6726 74.4608L38.4801 77.4058L37.4554 80.4058L36.6052 83.4599L35.9267 86.5719L35.3378 89.7505L34.9084 92.9055L34.6628 96.2L34.5728 99.468L34.6459 102.712L34.8091 106.026L35.2249 109.382L35.797 112.715L36.5985 115.935L37.4777 119.14L38.509 122.246L39.6837 125.244L41.0072 128.143L42.4896 131.016L44.0387 133.799L45.7353 136.477L47.5835 139.053L49.5762 141.527L51.6351 143.909L53.8449 146.185L56.1097 148.293L58.4522 150.387L60.9312 152.3L63.4801 154.124L66.1646 155.761L68.8342 157.32L71.6546 158.774L74.5302 160.06L77.4719 161.253L80.4714 162.274L83.5288 163.124L86.6414 163.806L89.8199 164.395L92.975 164.824L96.1879 165.082L99.4554 165.168L102.793 165.165L106.091 164.92L109.452 164.507L112.784 163.932L116.013 163.212L119.209 162.251L122.312 161.224L125.313 160.049L128.209 158.726L131.085 157.243L133.864 155.691L136.546 153.994L139.122 152.149L141.593 150.157L143.975 148.094L146.255 145.887L148.363 143.623L150.456 141.28L152.369 138.798L154.189 136.249L155.83 133.568L157.389 130.895L158.843 128.078L160.129 125.202L161.322 122.257L162.343 119.258L163.193 116.204L163.875 113.091L164.461 109.913L164.89 106.755L165.151 103.544L165.237 100.274L165.153 96.9516L164.989 93.6377L164.574 90.2813L164.002 86.948L163.2 83.7284L162.332 80.6019L161.305 77.4989L160.114 74.4165L158.791 71.5203L157.312 68.6471L155.76 65.8645L154.063 63.1865L152.218 60.6102L150.226 58.1355L148.163 55.7544L145.969 53.556L143.692 51.3695L141.346 49.2733L138.867 47.3631L136.318 45.5396L133.637 43.9022L130.964 42.3434L128.143 40.8862L125.268 39.6036L122.327 38.4107L119.339 37.4675L116.269 36.5363L113.16 35.8572L109.978 35.2688L106.824 34.8395L103.611 34.5818L100.343 34.4952L97.0171 34.5769L93.7187 34.8211L90.3623 35.237Z" fill="#D9D9D9"/>
<path fill-rule="evenodd" clip-rule="evenodd" d="M99.266 95.5287L98.4019 95.7396L97.639 96.0952L96.9813 96.5983L96.4255 97.2528L95.9624 97.9701L95.6709 98.7453L95.5477 99.5789L95.599 100.467L95.8064 101.331L96.1648 102.09L96.6684 102.751L97.3191 103.304L98.0398 103.767L98.8154 104.062L99.6485 104.182L100.536 104.13L101.401 103.923L102.16 103.568L102.818 103.061L103.374 102.41L103.837 101.693L104.128 100.914L104.252 100.084L104.2 99.1964L103.993 98.3318L103.634 97.5694L103.131 96.9115L102.48 96.3587L101.759 95.8927L100.984 95.6012L100.154 95.4808L99.266 95.5287Z" fill="black"/>
<path fill-rule="evenodd" clip-rule="evenodd" d="M126.244 53.377L98.0346 98.2333L101.412 99.6082L126.244 53.377Z" fill="black"/>
<path fill-rule="evenodd" clip-rule="evenodd" d="M98.552 101.738L106.884 139.411L102.216 101.197L98.552 101.738Z" fill="black"/>
<path d="M46.2919 60.87L40.5198 56.5107" stroke="black" stroke-width="1.4147" stroke-miterlimit="10" stroke-linecap="round" stroke-linejoin="round"/>
<path d="M87.708 28.3042L88.7666 35.4727" stroke="black" stroke-width="1.4147" stroke-miterlimit="10" stroke-linecap="round" stroke-linejoin="round"/>
<path fill-rule="evenodd" clip-rule="evenodd" d="M129.447 99.9119V114.419H291.83V99.9119H129.447Z" fill="#FF5959"/>
<path fill-rule="evenodd" clip-rule="evenodd" d="M129.447 114.419V223.058H291.83V114.419H129.447Z" fill="#EEEEEE"/>
<path d="M158.296 120.439V217.042" stroke="#CCCCCC" stroke-width="1.4147" stroke-miterlimit="10" stroke-linecap="round" stroke-linejoin="round"/>
<path d="M193.164 120.439V217.042" stroke="#CCCCCC" stroke-width="1.4147" stroke-miterlimit="10" stroke-linecap="round" stroke-linejoin="round"/>
<path d="M228.113 120.439V217.042" stroke="#CCCCCC" stroke-width="1.4147" stroke-miterlimit="10" stroke-linecap="round" stroke-linejoin="round"/>
<path d="M262.978 120.439V217.042" stroke="#CCCCCC" stroke-width="1.4147" stroke-miterlimit="10" stroke-linecap="round" stroke-linejoin="round"/>
<path d="M145.437 135.603H275.756" stroke="#CCCCCC" stroke-width="1.4147" stroke-miterlimit="10" stroke-linecap="round" stroke-linejoin="round"/>
<path d="M145.437 168.738H275.756" stroke="#CCCCCC" stroke-width="1.4147" stroke-miterlimit="10" stroke-linecap="round" stroke-linejoin="round"/>
<path d="M145.437 201.793H275.756" stroke="#CCCCCC" stroke-width="1.4147" stroke-miterlimit="10" stroke-linecap="round" stroke-linejoin="round"/>
<path fill-rule="evenodd" clip-rule="evenodd" d="M125.325 128.268V155.88H139.171V128.268H125.325Z" fill="#FF5959"/>
<path fill-rule="evenodd" clip-rule="evenodd" d="M279.052 146.483V174.098H299.906V146.483H279.052Z" fill="#7FC991"/>
<path fill-rule="evenodd" clip-rule="evenodd" d="M279.052 188.77V206.573H299.906V188.77H279.052Z" fill="#FCC858"/>
</svg>
