<svg width="181" height="28" viewBox="0 0 181 28" fill="none" xmlns="http://www.w3.org/2000/svg">
<path d="M0.285156 1.40625H9.83008C11.7871 1.40625 13.4688 1.69922 14.875 2.28516C16.293 2.87109 17.3828 3.73828 18.1445 4.88672C18.9062 6.03516 19.2871 7.44727 19.2871 9.12305C19.2871 10.4941 19.0527 11.6719 18.584 12.6562C18.127 13.6289 17.4766 14.4434 16.6328 15.0996C15.8008 15.7441 14.8223 16.2598 13.6973 16.6465L12.0273 17.5254H3.73047L3.69531 13.4121H9.86523C10.791 13.4121 11.5586 13.248 12.168 12.9199C12.7773 12.5918 13.2344 12.1348 13.5391 11.5488C13.8555 10.9629 14.0137 10.2832 14.0137 9.50977C14.0137 8.68945 13.8613 7.98047 13.5566 7.38281C13.252 6.78516 12.7891 6.32812 12.168 6.01172C11.5469 5.69531 10.7676 5.53711 9.83008 5.53711H5.55859V27H0.285156V1.40625ZM14.5938 27L8.75781 15.5918L14.3301 15.5566L20.2363 26.7539V27H14.5938ZM31.7852 27.3516C30.3086 27.3516 28.9844 27.1172 27.8125 26.6484C26.6406 26.168 25.6445 25.5059 24.8242 24.6621C24.0156 23.8184 23.3945 22.8398 22.9609 21.7266C22.5273 20.6016 22.3105 19.4062 22.3105 18.1406V17.4375C22.3105 15.9961 22.5156 14.6777 22.9258 13.4824C23.3359 12.2871 23.9219 11.25 24.6836 10.3711C25.457 9.49219 26.3945 8.81836 27.4961 8.34961C28.5977 7.86914 29.8398 7.62891 31.2227 7.62891C32.5703 7.62891 33.7656 7.85156 34.8086 8.29688C35.8516 8.74219 36.7246 9.375 37.4277 10.1953C38.1426 11.0156 38.6816 12 39.0449 13.1484C39.4082 14.2852 39.5898 15.5508 39.5898 16.9453V19.0547H24.4727V15.6797H34.6152V15.293C34.6152 14.5898 34.4863 13.9629 34.2285 13.4121C33.9824 12.8496 33.6074 12.4043 33.1035 12.0762C32.5996 11.748 31.9551 11.584 31.1699 11.584C30.502 11.584 29.9277 11.7305 29.4473 12.0234C28.9668 12.3164 28.5742 12.7266 28.2695 13.2539C27.9766 13.7812 27.7539 14.4023 27.6016 15.1172C27.4609 15.8203 27.3906 16.5938 27.3906 17.4375V18.1406C27.3906 18.9023 27.4961 19.6055 27.707 20.25C27.9297 20.8945 28.2402 21.4512 28.6387 21.9199C29.0488 22.3887 29.541 22.752 30.1152 23.0098C30.7012 23.2676 31.3633 23.3965 32.1016 23.3965C33.0156 23.3965 33.8652 23.2207 34.6504 22.8691C35.4473 22.5059 36.1328 21.9609 36.707 21.2344L39.168 23.9062C38.7695 24.4805 38.2246 25.0312 37.5332 25.5586C36.8535 26.0859 36.0332 26.5195 35.0723 26.8594C34.1113 27.1875 33.0156 27.3516 31.7852 27.3516ZM47.5352 11.918V27H42.4551V7.98047H47.2188L47.5352 11.918ZM46.832 16.8223H45.4258C45.4258 15.498 45.584 14.2793 45.9004 13.166C46.2285 12.041 46.7031 11.0684 47.3242 10.248C47.957 9.41602 48.7363 8.77148 49.6621 8.31445C50.5879 7.85742 51.6602 7.62891 52.8789 7.62891C53.7227 7.62891 54.4961 7.75781 55.1992 8.01562C55.9023 8.26172 56.5059 8.6543 57.0098 9.19336C57.5254 9.7207 57.9238 10.4121 58.2051 11.2676C58.4863 12.1113 58.627 13.125 58.627 14.3086V27H53.5645V14.8711C53.5645 14.0039 53.4473 13.3359 53.2129 12.8672C52.9785 12.3984 52.6445 12.0703 52.2109 11.8828C51.7891 11.6953 51.2793 11.6016 50.6816 11.6016C50.0254 11.6016 49.4512 11.7363 48.959 12.0059C48.4785 12.2754 48.0801 12.6504 47.7637 13.1309C47.4473 13.5996 47.2129 14.1504 47.0605 14.7832C46.9082 15.416 46.832 16.0957 46.832 16.8223ZM58.1523 16.2422L56.3418 16.4707C56.3418 15.2285 56.4941 14.0742 56.7988 13.0078C57.1152 11.9414 57.5781 11.0039 58.1875 10.1953C58.8086 9.38672 59.5762 8.75977 60.4902 8.31445C61.4043 7.85742 62.459 7.62891 63.6543 7.62891C64.5684 7.62891 65.4004 7.76367 66.1504 8.0332C66.9004 8.29102 67.5391 8.70703 68.0664 9.28125C68.6055 9.84375 69.0156 10.582 69.2969 11.4961C69.5898 12.4102 69.7363 13.5293 69.7363 14.8535V27H64.6562V14.8535C64.6562 13.9746 64.5391 13.3066 64.3047 12.8496C64.082 12.3809 63.7539 12.0586 63.3203 11.8828C62.8984 11.6953 62.3945 11.6016 61.8086 11.6016C61.1992 11.6016 60.666 11.7246 60.209 11.9707C59.752 12.2051 59.3711 12.5332 59.0664 12.9551C58.7617 13.377 58.5332 13.8691 58.3809 14.4316C58.2285 14.9824 58.1523 15.5859 58.1523 16.2422ZM79 7.98047V27H73.9199V7.98047H79ZM73.6035 3.02344C73.6035 2.28516 73.8613 1.67578 74.377 1.19531C74.8926 0.714844 75.584 0.474609 76.4512 0.474609C77.3066 0.474609 77.9922 0.714844 78.5078 1.19531C79.0352 1.67578 79.2988 2.28516 79.2988 3.02344C79.2988 3.76172 79.0352 4.37109 78.5078 4.85156C77.9922 5.33203 77.3066 5.57227 76.4512 5.57227C75.584 5.57227 74.8926 5.33203 74.377 4.85156C73.8613 4.37109 73.6035 3.76172 73.6035 3.02344ZM88.1406 12.041V27H83.0781V7.98047H87.8242L88.1406 12.041ZM87.4023 16.8223H86.0312C86.0312 15.416 86.2129 14.1504 86.5762 13.0254C86.9395 11.8887 87.4492 10.9219 88.1055 10.125C88.7617 9.31641 89.541 8.70117 90.4434 8.2793C91.3574 7.8457 92.377 7.62891 93.502 7.62891C94.3926 7.62891 95.207 7.75781 95.9453 8.01562C96.6836 8.27344 97.3164 8.68359 97.8438 9.24609C98.3828 9.80859 98.793 10.5527 99.0742 11.4785C99.3672 12.4043 99.5137 13.5352 99.5137 14.8711V27H94.416V14.8535C94.416 14.0098 94.2988 13.3535 94.0645 12.8848C93.8301 12.416 93.4844 12.0879 93.0273 11.9004C92.582 11.7012 92.0312 11.6016 91.375 11.6016C90.6953 11.6016 90.1035 11.7363 89.5996 12.0059C89.1074 12.2754 88.6973 12.6504 88.3691 13.1309C88.0527 13.5996 87.8125 14.1504 87.6484 14.7832C87.4844 15.416 87.4023 16.0957 87.4023 16.8223ZM114.596 22.8516V0H119.693V27H115.105L114.596 22.8516ZM102.572 17.7188V17.3496C102.572 15.8965 102.736 14.5781 103.064 13.3945C103.393 12.1992 103.873 11.1738 104.506 10.3184C105.139 9.46289 105.918 8.80078 106.844 8.33203C107.77 7.86328 108.824 7.62891 110.008 7.62891C111.121 7.62891 112.094 7.86328 112.926 8.33203C113.77 8.80078 114.484 9.46875 115.07 10.3359C115.668 11.1914 116.148 12.2051 116.512 13.377C116.875 14.5371 117.139 15.8086 117.303 17.1914V18C117.139 19.3242 116.875 20.5547 116.512 21.6914C116.148 22.8281 115.668 23.8242 115.07 24.6797C114.484 25.5234 113.77 26.1797 112.926 26.6484C112.082 27.1172 111.098 27.3516 109.973 27.3516C108.789 27.3516 107.734 27.1113 106.809 26.6309C105.895 26.1504 105.121 25.4766 104.488 24.6094C103.867 23.7422 103.393 22.7227 103.064 21.5508C102.736 20.3789 102.572 19.1016 102.572 17.7188ZM107.635 17.3496V17.7188C107.635 18.5039 107.693 19.2363 107.811 19.916C107.939 20.5957 108.145 21.1992 108.426 21.7266C108.719 22.2422 109.094 22.6465 109.551 22.9395C110.02 23.2207 110.588 23.3613 111.256 23.3613C112.123 23.3613 112.838 23.168 113.4 22.7812C113.963 22.3828 114.391 21.8379 114.684 21.1465C114.988 20.4551 115.164 19.6582 115.211 18.7559V16.4531C115.176 15.7148 115.07 15.0527 114.895 14.4668C114.73 13.8691 114.484 13.3594 114.156 12.9375C113.84 12.5156 113.441 12.1875 112.961 11.9531C112.492 11.7188 111.936 11.6016 111.291 11.6016C110.635 11.6016 110.072 11.7539 109.604 12.0586C109.135 12.3516 108.754 12.7559 108.461 13.2715C108.18 13.7871 107.969 14.3965 107.828 15.0996C107.699 15.791 107.635 16.541 107.635 17.3496ZM126.373 1.40625H130.838L137.412 20.1973L143.986 1.40625H148.451L139.205 27H135.619L126.373 1.40625ZM123.965 1.40625H128.412L129.221 19.7227V27H123.965V1.40625ZM146.412 1.40625H150.877V27H145.604V19.7227L146.412 1.40625ZM163.938 27.3516C162.461 27.3516 161.137 27.1172 159.965 26.6484C158.793 26.168 157.797 25.5059 156.977 24.6621C156.168 23.8184 155.547 22.8398 155.113 21.7266C154.68 20.6016 154.463 19.4062 154.463 18.1406V17.4375C154.463 15.9961 154.668 14.6777 155.078 13.4824C155.488 12.2871 156.074 11.25 156.836 10.3711C157.609 9.49219 158.547 8.81836 159.648 8.34961C160.75 7.86914 161.992 7.62891 163.375 7.62891C164.723 7.62891 165.918 7.85156 166.961 8.29688C168.004 8.74219 168.877 9.375 169.58 10.1953C170.295 11.0156 170.834 12 171.197 13.1484C171.561 14.2852 171.742 15.5508 171.742 16.9453V19.0547H156.625V15.6797H166.768V15.293C166.768 14.5898 166.639 13.9629 166.381 13.4121C166.135 12.8496 165.76 12.4043 165.256 12.0762C164.752 11.748 164.107 11.584 163.322 11.584C162.654 11.584 162.08 11.7305 161.6 12.0234C161.119 12.3164 160.727 12.7266 160.422 13.2539C160.129 13.7812 159.906 14.4023 159.754 15.1172C159.613 15.8203 159.543 16.5938 159.543 17.4375V18.1406C159.543 18.9023 159.648 19.6055 159.859 20.25C160.082 20.8945 160.393 21.4512 160.791 21.9199C161.201 22.3887 161.693 22.752 162.268 23.0098C162.854 23.2676 163.516 23.3965 164.254 23.3965C165.168 23.3965 166.018 23.2207 166.803 22.8691C167.6 22.5059 168.285 21.9609 168.859 21.2344L171.32 23.9062C170.922 24.4805 170.377 25.0312 169.686 25.5586C169.006 26.0859 168.186 26.5195 167.225 26.8594C166.264 27.1875 165.168 27.3516 163.938 27.3516ZM180.338 1.40625L179.758 19.1777H175.539L174.941 1.40625H180.338ZM174.801 24.6797C174.801 23.9297 175.059 23.3086 175.574 22.8164C176.102 22.3125 176.793 22.0605 177.648 22.0605C178.516 22.0605 179.207 22.3125 179.723 22.8164C180.238 23.3086 180.496 23.9297 180.496 24.6797C180.496 25.4062 180.238 26.0215 179.723 26.5254C179.207 27.0293 178.516 27.2812 177.648 27.2812C176.793 27.2812 176.102 27.0293 175.574 26.5254C175.059 26.0215 174.801 25.4062 174.801 24.6797Z" fill="#0E2560"/>
</svg>
